G04 #@! TF.GenerationSoftware,KiCad,Pcbnew,(5.1.10)-1*
G04 #@! TF.CreationDate,2021-11-01T09:09:40+09:00*
G04 #@! TF.ProjectId,LiPoCharger_BQ24610_5S,4c69506f-4368-4617-9267-65725f425132,rev?*
G04 #@! TF.SameCoordinates,Original*
G04 #@! TF.FileFunction,Legend,Bot*
G04 #@! TF.FilePolarity,Positive*
%FSLAX46Y46*%
G04 Gerber Fmt 4.6, Leading zero omitted, Abs format (unit mm)*
G04 Created by KiCad (PCBNEW (5.1.10)-1) date 2021-11-01 09:09:40*
%MOMM*%
%LPD*%
G01*
G04 APERTURE LIST*
%ADD10C,0.120000*%
%ADD11C,0.150000*%
G04 APERTURE END LIST*
D10*
X172770000Y-101950000D02*
X174100000Y-101950000D01*
X172770000Y-100620000D02*
X172770000Y-101950000D01*
X172770000Y-99350000D02*
X175430000Y-99350000D01*
X175430000Y-99350000D02*
X175430000Y-91670000D01*
X172770000Y-99350000D02*
X172770000Y-91670000D01*
X172770000Y-91670000D02*
X175430000Y-91670000D01*
X210990000Y-94210000D02*
X209660000Y-94210000D01*
X210990000Y-95540000D02*
X210990000Y-94210000D01*
X210990000Y-96810000D02*
X208330000Y-96810000D01*
X208330000Y-96810000D02*
X208330000Y-99410000D01*
X210990000Y-96810000D02*
X210990000Y-99410000D01*
X210990000Y-99410000D02*
X208330000Y-99410000D01*
X175430000Y-89250000D02*
X172770000Y-89250000D01*
X175430000Y-81570000D02*
X175430000Y-89250000D01*
X172770000Y-81570000D02*
X172770000Y-89250000D01*
X175430000Y-81570000D02*
X172770000Y-81570000D01*
X175430000Y-80300000D02*
X175430000Y-78970000D01*
X175430000Y-78970000D02*
X174100000Y-78970000D01*
X210990000Y-89250000D02*
X208330000Y-89250000D01*
X210990000Y-81570000D02*
X210990000Y-89250000D01*
X208330000Y-81570000D02*
X208330000Y-89250000D01*
X210990000Y-81570000D02*
X208330000Y-81570000D01*
X210990000Y-80300000D02*
X210990000Y-78970000D01*
X210990000Y-78970000D02*
X209660000Y-78970000D01*
D11*
X174453333Y-102172380D02*
X174453333Y-102886666D01*
X174500952Y-103029523D01*
X174596190Y-103124761D01*
X174739047Y-103172380D01*
X174834285Y-103172380D01*
X174072380Y-102172380D02*
X173453333Y-102172380D01*
X173786666Y-102553333D01*
X173643809Y-102553333D01*
X173548571Y-102600952D01*
X173500952Y-102648571D01*
X173453333Y-102743809D01*
X173453333Y-102981904D01*
X173500952Y-103077142D01*
X173548571Y-103124761D01*
X173643809Y-103172380D01*
X173929523Y-103172380D01*
X174024761Y-103124761D01*
X174072380Y-103077142D01*
X210445714Y-100368571D02*
X210302857Y-100416190D01*
X210255238Y-100463809D01*
X210207619Y-100559047D01*
X210207619Y-100701904D01*
X210255238Y-100797142D01*
X210302857Y-100844761D01*
X210398095Y-100892380D01*
X210779047Y-100892380D01*
X210779047Y-99892380D01*
X210445714Y-99892380D01*
X210350476Y-99940000D01*
X210302857Y-99987619D01*
X210255238Y-100082857D01*
X210255238Y-100178095D01*
X210302857Y-100273333D01*
X210350476Y-100320952D01*
X210445714Y-100368571D01*
X210779047Y-100368571D01*
X209921904Y-99892380D02*
X209350476Y-99892380D01*
X209636190Y-100892380D02*
X209636190Y-99892380D01*
X208493333Y-100892380D02*
X209064761Y-100892380D01*
X208779047Y-100892380D02*
X208779047Y-99892380D01*
X208874285Y-100035238D01*
X208969523Y-100130476D01*
X209064761Y-100178095D01*
X174433333Y-89452380D02*
X174433333Y-90166666D01*
X174480952Y-90309523D01*
X174576190Y-90404761D01*
X174719047Y-90452380D01*
X174814285Y-90452380D01*
X173433333Y-90452380D02*
X174004761Y-90452380D01*
X173719047Y-90452380D02*
X173719047Y-89452380D01*
X173814285Y-89595238D01*
X173909523Y-89690476D01*
X174004761Y-89738095D01*
X210033333Y-89552380D02*
X210033333Y-90266666D01*
X210080952Y-90409523D01*
X210176190Y-90504761D01*
X210319047Y-90552380D01*
X210414285Y-90552380D01*
X209604761Y-89647619D02*
X209557142Y-89600000D01*
X209461904Y-89552380D01*
X209223809Y-89552380D01*
X209128571Y-89600000D01*
X209080952Y-89647619D01*
X209033333Y-89742857D01*
X209033333Y-89838095D01*
X209080952Y-89980952D01*
X209652380Y-90552380D01*
X209033333Y-90552380D01*
M02*
