M48
; DRILL file {KiCad (5.1.10)-1} date 11/01/21 09:09:38
; FORMAT={3:3/ absolute / metric / suppress leading zeros}
; #@! TF.CreationDate,2021-11-01T09:09:38+09:00
; #@! TF.GenerationSoftware,Kicad,Pcbnew,(5.1.10)-1
FMAT,2
METRIC,TZ
T1C0.254
T2C0.300
T3C0.500
T4C1.000
%
G90
G05
T1
X183413Y-97713
X183413Y-98500
X183413Y-99287
X184200Y-97713
X184200Y-98500
X184200Y-99287
X184987Y-97713
X184987Y-98500
X184987Y-99287
T2
X176800Y-102200
X177000Y-96000
X177600Y-101700
X179000Y-101200
X179700Y-106500
X180200Y-97000
X180700Y-101200
X181000Y-93200
X181800Y-103400
X181900Y-89200
X182500Y-94000
X183500Y-107700
X184400Y-106300
X184700Y-103000
X184900Y-86500
X186300Y-95600
X187000Y-95000
X187100Y-97700
X188300Y-97250
X189200Y-92400
X191600Y-91400
X191700Y-89300
X192300Y-98100
X192400Y-100800
X192500Y-100000
X192500Y-103900
X192700Y-95400
X192700Y-102500
X192832Y-93868
X193300Y-92600
X193900Y-92600
X194500Y-92600
X194900Y-105900
X199500Y-94500
X200400Y-107300
X211200Y-107300
T3
X191000Y-79300
X195600Y-79300
X201100Y-94200
X201100Y-96100
T4
X174100Y-80300
X174100Y-82840
X174100Y-85380
X174100Y-87920
X174100Y-93000
X174100Y-95540
X174100Y-98080
X174100Y-100620
X209660Y-80300
X209660Y-82840
X209660Y-85380
X209660Y-87920
X209660Y-95540
X209660Y-98080
T0
M30
