G04 #@! TF.GenerationSoftware,KiCad,Pcbnew,(5.1.10)-1*
G04 #@! TF.CreationDate,2021-11-01T09:09:40+09:00*
G04 #@! TF.ProjectId,LiPoCharger_BQ24610_5S,4c69506f-4368-4617-9267-65725f425132,rev?*
G04 #@! TF.SameCoordinates,Original*
G04 #@! TF.FileFunction,Soldermask,Top*
G04 #@! TF.FilePolarity,Negative*
%FSLAX46Y46*%
G04 Gerber Fmt 4.6, Leading zero omitted, Abs format (unit mm)*
G04 Created by KiCad (PCBNEW (5.1.10)-1) date 2021-11-01 09:09:40*
%MOMM*%
%LPD*%
G01*
G04 APERTURE LIST*
%ADD10C,0.100000*%
%ADD11R,0.450000X0.600000*%
%ADD12R,0.500000X0.900000*%
%ADD13R,0.900000X0.500000*%
%ADD14R,0.800000X0.800000*%
%ADD15R,1.700000X1.700000*%
%ADD16O,1.700000X1.700000*%
%ADD17R,0.800000X0.750000*%
%ADD18R,0.600000X0.450000*%
%ADD19R,1.000000X1.250000*%
%ADD20R,1.250000X1.000000*%
%ADD21R,0.750000X0.800000*%
%ADD22R,1.300000X0.700000*%
%ADD23R,0.850000X0.280000*%
%ADD24R,0.280000X0.850000*%
%ADD25R,2.450000X2.450000*%
%ADD26C,0.508000*%
%ADD27R,0.431800X0.304800*%
%ADD28R,0.406400X0.304800*%
%ADD29R,0.304800X0.863600*%
%ADD30R,0.700000X1.300000*%
%ADD31R,1.500000X1.000000*%
%ADD32R,2.350000X5.100000*%
%ADD33R,0.304800X0.431800*%
%ADD34R,0.304800X0.406400*%
G04 APERTURE END LIST*
D10*
G36*
X185550000Y-99850000D02*
G01*
X182850000Y-99850000D01*
X182850000Y-97150000D01*
X185550000Y-97150000D01*
X185550000Y-99850000D01*
G37*
X185550000Y-99850000D02*
X182850000Y-99850000D01*
X182850000Y-97150000D01*
X185550000Y-97150000D01*
X185550000Y-99850000D01*
G36*
X193000000Y-89800000D02*
G01*
X193000000Y-88700000D01*
X195400000Y-88700000D01*
X195400000Y-89800000D01*
X196100000Y-89800000D01*
X196100000Y-90100000D01*
X192300000Y-90100000D01*
X192300000Y-89800000D01*
X193000000Y-89800000D01*
G37*
X193000000Y-89800000D02*
X193000000Y-88700000D01*
X195400000Y-88700000D01*
X195400000Y-89800000D01*
X196100000Y-89800000D01*
X196100000Y-90100000D01*
X192300000Y-90100000D01*
X192300000Y-89800000D01*
X193000000Y-89800000D01*
G36*
X193000000Y-85200000D02*
G01*
X193000000Y-84100000D01*
X195400000Y-84100000D01*
X195400000Y-85200000D01*
X196100000Y-85200000D01*
X196100000Y-85500000D01*
X192300000Y-85500000D01*
X192300000Y-85200000D01*
X193000000Y-85200000D01*
G37*
X193000000Y-85200000D02*
X193000000Y-84100000D01*
X195400000Y-84100000D01*
X195400000Y-85200000D01*
X196100000Y-85200000D01*
X196100000Y-85500000D01*
X192300000Y-85500000D01*
X192300000Y-85200000D01*
X193000000Y-85200000D01*
D11*
X207400000Y-95950000D03*
X207400000Y-98050000D03*
D12*
X190250000Y-98100000D03*
X191750000Y-98100000D03*
X190250000Y-101000000D03*
X191750000Y-101000000D03*
X178950000Y-105100000D03*
X177450000Y-105100000D03*
D13*
X187800000Y-103750000D03*
X187800000Y-105250000D03*
D12*
X190250000Y-99600000D03*
X191750000Y-99600000D03*
X190250000Y-96600000D03*
X191750000Y-96600000D03*
D13*
X186300000Y-103750000D03*
X186300000Y-105250000D03*
D12*
X197050000Y-107300000D03*
X195550000Y-107300000D03*
X199650000Y-107300000D03*
X198150000Y-107300000D03*
X178150000Y-92700000D03*
X179650000Y-92700000D03*
X190250000Y-105500000D03*
X191750000Y-105500000D03*
D13*
X186900000Y-92650000D03*
X186900000Y-94150000D03*
D12*
X177450000Y-103700000D03*
X178950000Y-103700000D03*
D14*
X176100000Y-103700000D03*
X174500000Y-103700000D03*
X174500000Y-106500000D03*
X176100000Y-106500000D03*
D12*
X185050000Y-92300000D03*
X183550000Y-92300000D03*
D15*
X174100000Y-100620000D03*
D16*
X174100000Y-98080000D03*
X174100000Y-95540000D03*
X174100000Y-93000000D03*
D12*
X197050000Y-105800000D03*
X195550000Y-105800000D03*
D17*
X180750000Y-100300000D03*
X179250000Y-100300000D03*
D13*
X191800000Y-92350000D03*
X191800000Y-93850000D03*
D12*
X176950000Y-98300000D03*
X178450000Y-98300000D03*
D14*
X174500000Y-105100000D03*
X176100000Y-105100000D03*
D12*
X190250000Y-104000000D03*
X191750000Y-104000000D03*
X181950000Y-86700000D03*
X183450000Y-86700000D03*
D18*
X183450000Y-94100000D03*
X185550000Y-94100000D03*
D12*
X177450000Y-106500000D03*
X178950000Y-106500000D03*
D17*
X190250000Y-107000000D03*
X191750000Y-107000000D03*
X190350000Y-95200000D03*
X191850000Y-95200000D03*
D19*
X202300000Y-96100000D03*
X204300000Y-96100000D03*
D17*
X181150000Y-94200000D03*
X179650000Y-94200000D03*
D19*
X204300000Y-94200000D03*
X202300000Y-94200000D03*
D20*
X194200000Y-79300000D03*
X194200000Y-81300000D03*
X192400000Y-81300000D03*
X192400000Y-79300000D03*
D21*
X190300000Y-92350000D03*
X190300000Y-93850000D03*
D17*
X183450000Y-88100000D03*
X181950000Y-88100000D03*
D15*
X209660000Y-95540000D03*
D16*
X209660000Y-98080000D03*
D17*
X191850000Y-102500000D03*
X190350000Y-102500000D03*
X176550000Y-79300000D03*
X178050000Y-79300000D03*
D21*
X195600000Y-99550000D03*
X195600000Y-101050000D03*
D17*
X177100000Y-96800000D03*
X178600000Y-96800000D03*
D21*
X188300000Y-94150000D03*
X188300000Y-92650000D03*
D17*
X187650000Y-85600000D03*
X186150000Y-85600000D03*
D22*
X204400000Y-90150000D03*
X204400000Y-92050000D03*
D21*
X182600000Y-101850000D03*
X182600000Y-103350000D03*
D23*
X182225000Y-97250000D03*
X182225000Y-97749999D03*
X182225000Y-98250000D03*
X182225000Y-98750000D03*
X182225000Y-99250001D03*
X182225000Y-99750000D03*
D24*
X182949685Y-100475000D03*
X183449811Y-100475000D03*
X183949937Y-100475000D03*
X184450063Y-100475000D03*
X184950189Y-100475000D03*
X185450315Y-100475000D03*
D23*
X186175000Y-99750000D03*
X186175000Y-99250001D03*
X186175000Y-98750000D03*
X186175000Y-98250000D03*
X186175000Y-97749999D03*
X186175000Y-97250000D03*
D24*
X185450315Y-96525000D03*
X184950189Y-96525000D03*
X184450063Y-96525000D03*
X183949937Y-96525000D03*
X183449811Y-96525000D03*
X182949685Y-96525000D03*
D25*
X184200000Y-98500000D03*
D26*
X183412600Y-99287400D03*
X183412600Y-98500000D03*
X183412600Y-97712600D03*
X184200000Y-99287400D03*
X184200000Y-98500000D03*
X184200000Y-97712600D03*
X184987400Y-99287400D03*
X184987400Y-98500000D03*
X184987400Y-97712600D03*
D12*
X177950000Y-80700000D03*
X176450000Y-80700000D03*
D27*
X181964999Y-83025021D03*
X181964999Y-83675007D03*
X181964999Y-84324993D03*
X181964999Y-84974979D03*
D28*
X184847701Y-84974979D03*
X184847701Y-84324993D03*
X184847701Y-83675007D03*
X184847701Y-83025021D03*
G36*
G01*
X182800000Y-85099300D02*
X182800000Y-82900700D01*
G75*
G02*
X182900700Y-82800000I100700J0D01*
G01*
X184599300Y-82800000D01*
G75*
G02*
X184700000Y-82900700I0J-100700D01*
G01*
X184700000Y-85099300D01*
G75*
G02*
X184599300Y-85200000I-100700J0D01*
G01*
X182900700Y-85200000D01*
G75*
G02*
X182800000Y-85099300I0J100700D01*
G01*
G37*
D29*
X193225001Y-88325200D03*
X193874999Y-88325200D03*
X194525001Y-88325200D03*
X195174999Y-88325200D03*
X195174999Y-91474800D03*
X194525001Y-91474800D03*
X193874999Y-91474800D03*
X193225001Y-91474800D03*
D30*
X185950000Y-84000000D03*
X187850000Y-84000000D03*
D29*
X193225001Y-83725200D03*
X193874999Y-83725200D03*
X194525001Y-83725200D03*
X195174999Y-83725200D03*
X195174999Y-86874800D03*
X194525001Y-86874800D03*
X193874999Y-86874800D03*
X193225001Y-86874800D03*
D16*
X174100000Y-87920000D03*
X174100000Y-85380000D03*
X174100000Y-82840000D03*
D15*
X174100000Y-80300000D03*
D16*
X209660000Y-87920000D03*
X209660000Y-85380000D03*
X209660000Y-82840000D03*
D15*
X209660000Y-80300000D03*
D31*
X209600000Y-107250000D03*
X209600000Y-105950000D03*
D32*
X201975000Y-88000000D03*
X197825000Y-88000000D03*
D27*
X180435001Y-84274979D03*
X180435001Y-83624993D03*
X180435001Y-82975007D03*
X180435001Y-82325021D03*
D28*
X177552299Y-82325021D03*
X177552299Y-82975007D03*
X177552299Y-83624993D03*
X177552299Y-84274979D03*
G36*
G01*
X179600000Y-82200700D02*
X179600000Y-84399300D01*
G75*
G02*
X179499300Y-84500000I-100700J0D01*
G01*
X177800700Y-84500000D01*
G75*
G02*
X177700000Y-84399300I0J100700D01*
G01*
X177700000Y-82200700D01*
G75*
G02*
X177800700Y-82100000I100700J0D01*
G01*
X179499300Y-82100000D01*
G75*
G02*
X179600000Y-82200700I0J-100700D01*
G01*
G37*
D33*
X210774979Y-90364999D03*
X210124993Y-90364999D03*
X209475007Y-90364999D03*
X208825021Y-90364999D03*
D34*
X208825021Y-93247701D03*
X209475007Y-93247701D03*
X210124993Y-93247701D03*
X210774979Y-93247701D03*
G36*
G01*
X208700700Y-91200000D02*
X210899300Y-91200000D01*
G75*
G02*
X211000000Y-91300700I0J-100700D01*
G01*
X211000000Y-92999300D01*
G75*
G02*
X210899300Y-93100000I-100700J0D01*
G01*
X208700700Y-93100000D01*
G75*
G02*
X208600000Y-92999300I0J100700D01*
G01*
X208600000Y-91300700D01*
G75*
G02*
X208700700Y-91200000I100700J0D01*
G01*
G37*
D21*
X184700000Y-103850000D03*
X184700000Y-105350000D03*
M02*
