G04 #@! TF.GenerationSoftware,KiCad,Pcbnew,(5.1.10)-1*
G04 #@! TF.CreationDate,2021-11-01T09:09:40+09:00*
G04 #@! TF.ProjectId,LiPoCharger_BQ24610_5S,4c69506f-4368-4617-9267-65725f425132,rev?*
G04 #@! TF.SameCoordinates,Original*
G04 #@! TF.FileFunction,Legend,Top*
G04 #@! TF.FilePolarity,Positive*
%FSLAX46Y46*%
G04 Gerber Fmt 4.6, Leading zero omitted, Abs format (unit mm)*
G04 Created by KiCad (PCBNEW (5.1.10)-1) date 2021-11-01 09:09:40*
%MOMM*%
%LPD*%
G01*
G04 APERTURE LIST*
%ADD10C,0.150000*%
%ADD11C,0.120000*%
%ADD12C,0.152400*%
%ADD13C,0.127000*%
G04 APERTURE END LIST*
D10*
X201233333Y-101102380D02*
X200757142Y-101102380D01*
X200757142Y-100102380D01*
X201566666Y-101102380D02*
X201566666Y-100435714D01*
X201566666Y-100102380D02*
X201519047Y-100150000D01*
X201566666Y-100197619D01*
X201614285Y-100150000D01*
X201566666Y-100102380D01*
X201566666Y-100197619D01*
X202042857Y-100721428D02*
X202804761Y-100721428D01*
X203280952Y-101102380D02*
X203280952Y-100102380D01*
X203900000Y-101102380D02*
X203804761Y-101054761D01*
X203757142Y-101007142D01*
X203709523Y-100911904D01*
X203709523Y-100626190D01*
X203757142Y-100530952D01*
X203804761Y-100483333D01*
X203900000Y-100435714D01*
X204042857Y-100435714D01*
X204138095Y-100483333D01*
X204185714Y-100530952D01*
X204233333Y-100626190D01*
X204233333Y-100911904D01*
X204185714Y-101007142D01*
X204138095Y-101054761D01*
X204042857Y-101102380D01*
X203900000Y-101102380D01*
X204661904Y-100435714D02*
X204661904Y-101102380D01*
X204661904Y-100530952D02*
X204709523Y-100483333D01*
X204804761Y-100435714D01*
X204947619Y-100435714D01*
X205042857Y-100483333D01*
X205090476Y-100578571D01*
X205090476Y-101102380D01*
X206900000Y-101007142D02*
X206852380Y-101054761D01*
X206709523Y-101102380D01*
X206614285Y-101102380D01*
X206471428Y-101054761D01*
X206376190Y-100959523D01*
X206328571Y-100864285D01*
X206280952Y-100673809D01*
X206280952Y-100530952D01*
X206328571Y-100340476D01*
X206376190Y-100245238D01*
X206471428Y-100150000D01*
X206614285Y-100102380D01*
X206709523Y-100102380D01*
X206852380Y-100150000D01*
X206900000Y-100197619D01*
X207328571Y-101102380D02*
X207328571Y-100102380D01*
X207757142Y-101102380D02*
X207757142Y-100578571D01*
X207709523Y-100483333D01*
X207614285Y-100435714D01*
X207471428Y-100435714D01*
X207376190Y-100483333D01*
X207328571Y-100530952D01*
X208661904Y-101102380D02*
X208661904Y-100578571D01*
X208614285Y-100483333D01*
X208519047Y-100435714D01*
X208328571Y-100435714D01*
X208233333Y-100483333D01*
X208661904Y-101054761D02*
X208566666Y-101102380D01*
X208328571Y-101102380D01*
X208233333Y-101054761D01*
X208185714Y-100959523D01*
X208185714Y-100864285D01*
X208233333Y-100769047D01*
X208328571Y-100721428D01*
X208566666Y-100721428D01*
X208661904Y-100673809D01*
X209138095Y-101102380D02*
X209138095Y-100435714D01*
X209138095Y-100626190D02*
X209185714Y-100530952D01*
X209233333Y-100483333D01*
X209328571Y-100435714D01*
X209423809Y-100435714D01*
X210185714Y-100435714D02*
X210185714Y-101245238D01*
X210138095Y-101340476D01*
X210090476Y-101388095D01*
X209995238Y-101435714D01*
X209852380Y-101435714D01*
X209757142Y-101388095D01*
X210185714Y-101054761D02*
X210090476Y-101102380D01*
X209900000Y-101102380D01*
X209804761Y-101054761D01*
X209757142Y-101007142D01*
X209709523Y-100911904D01*
X209709523Y-100626190D01*
X209757142Y-100530952D01*
X209804761Y-100483333D01*
X209900000Y-100435714D01*
X210090476Y-100435714D01*
X210185714Y-100483333D01*
X211042857Y-101054761D02*
X210947619Y-101102380D01*
X210757142Y-101102380D01*
X210661904Y-101054761D01*
X210614285Y-100959523D01*
X210614285Y-100578571D01*
X210661904Y-100483333D01*
X210757142Y-100435714D01*
X210947619Y-100435714D01*
X211042857Y-100483333D01*
X211090476Y-100578571D01*
X211090476Y-100673809D01*
X210614285Y-100769047D01*
X201590476Y-102752380D02*
X201542857Y-102752380D01*
X201447619Y-102704761D01*
X201304761Y-102561904D01*
X201066666Y-102276190D01*
X200971428Y-102133333D01*
X200923809Y-101990476D01*
X200923809Y-101895238D01*
X200971428Y-101800000D01*
X201066666Y-101752380D01*
X201114285Y-101752380D01*
X201209523Y-101800000D01*
X201257142Y-101895238D01*
X201257142Y-101942857D01*
X201209523Y-102038095D01*
X201161904Y-102085714D01*
X200876190Y-102276190D01*
X200828571Y-102323809D01*
X200780952Y-102419047D01*
X200780952Y-102561904D01*
X200828571Y-102657142D01*
X200876190Y-102704761D01*
X200971428Y-102752380D01*
X201114285Y-102752380D01*
X201209523Y-102704761D01*
X201257142Y-102657142D01*
X201400000Y-102466666D01*
X201447619Y-102323809D01*
X201447619Y-102228571D01*
X202780952Y-102752380D02*
X202780952Y-101752380D01*
X203161904Y-101752380D01*
X203257142Y-101800000D01*
X203304761Y-101847619D01*
X203352380Y-101942857D01*
X203352380Y-102085714D01*
X203304761Y-102180952D01*
X203257142Y-102228571D01*
X203161904Y-102276190D01*
X202780952Y-102276190D01*
X203923809Y-102752380D02*
X203828571Y-102704761D01*
X203780952Y-102657142D01*
X203733333Y-102561904D01*
X203733333Y-102276190D01*
X203780952Y-102180952D01*
X203828571Y-102133333D01*
X203923809Y-102085714D01*
X204066666Y-102085714D01*
X204161904Y-102133333D01*
X204209523Y-102180952D01*
X204257142Y-102276190D01*
X204257142Y-102561904D01*
X204209523Y-102657142D01*
X204161904Y-102704761D01*
X204066666Y-102752380D01*
X203923809Y-102752380D01*
X204590476Y-102085714D02*
X204780952Y-102752380D01*
X204971428Y-102276190D01*
X205161904Y-102752380D01*
X205352380Y-102085714D01*
X206114285Y-102704761D02*
X206019047Y-102752380D01*
X205828571Y-102752380D01*
X205733333Y-102704761D01*
X205685714Y-102609523D01*
X205685714Y-102228571D01*
X205733333Y-102133333D01*
X205828571Y-102085714D01*
X206019047Y-102085714D01*
X206114285Y-102133333D01*
X206161904Y-102228571D01*
X206161904Y-102323809D01*
X205685714Y-102419047D01*
X206590476Y-102752380D02*
X206590476Y-102085714D01*
X206590476Y-102276190D02*
X206638095Y-102180952D01*
X206685714Y-102133333D01*
X206780952Y-102085714D01*
X206876190Y-102085714D01*
X207971428Y-102752380D02*
X207971428Y-101752380D01*
X208352380Y-101752380D01*
X208447619Y-101800000D01*
X208495238Y-101847619D01*
X208542857Y-101942857D01*
X208542857Y-102085714D01*
X208495238Y-102180952D01*
X208447619Y-102228571D01*
X208352380Y-102276190D01*
X207971428Y-102276190D01*
X209400000Y-102752380D02*
X209400000Y-102228571D01*
X209352380Y-102133333D01*
X209257142Y-102085714D01*
X209066666Y-102085714D01*
X208971428Y-102133333D01*
X209400000Y-102704761D02*
X209304761Y-102752380D01*
X209066666Y-102752380D01*
X208971428Y-102704761D01*
X208923809Y-102609523D01*
X208923809Y-102514285D01*
X208971428Y-102419047D01*
X209066666Y-102371428D01*
X209304761Y-102371428D01*
X209400000Y-102323809D01*
X209828571Y-102704761D02*
X209923809Y-102752380D01*
X210114285Y-102752380D01*
X210209523Y-102704761D01*
X210257142Y-102609523D01*
X210257142Y-102561904D01*
X210209523Y-102466666D01*
X210114285Y-102419047D01*
X209971428Y-102419047D01*
X209876190Y-102371428D01*
X209828571Y-102276190D01*
X209828571Y-102228571D01*
X209876190Y-102133333D01*
X209971428Y-102085714D01*
X210114285Y-102085714D01*
X210209523Y-102133333D01*
X210638095Y-102704761D02*
X210733333Y-102752380D01*
X210923809Y-102752380D01*
X211019047Y-102704761D01*
X211066666Y-102609523D01*
X211066666Y-102561904D01*
X211019047Y-102466666D01*
X210923809Y-102419047D01*
X210780952Y-102419047D01*
X210685714Y-102371428D01*
X210638095Y-102276190D01*
X210638095Y-102228571D01*
X210685714Y-102133333D01*
X210780952Y-102085714D01*
X210923809Y-102085714D01*
X211019047Y-102133333D01*
X201114285Y-103735714D02*
X201352380Y-104402380D01*
X201590476Y-103735714D01*
X201971428Y-104307142D02*
X202019047Y-104354761D01*
X201971428Y-104402380D01*
X201923809Y-104354761D01*
X201971428Y-104307142D01*
X201971428Y-104402380D01*
X202638095Y-103402380D02*
X202733333Y-103402380D01*
X202828571Y-103450000D01*
X202876190Y-103497619D01*
X202923809Y-103592857D01*
X202971428Y-103783333D01*
X202971428Y-104021428D01*
X202923809Y-104211904D01*
X202876190Y-104307142D01*
X202828571Y-104354761D01*
X202733333Y-104402380D01*
X202638095Y-104402380D01*
X202542857Y-104354761D01*
X202495238Y-104307142D01*
X202447619Y-104211904D01*
X202400000Y-104021428D01*
X202400000Y-103783333D01*
X202447619Y-103592857D01*
X202495238Y-103497619D01*
X202542857Y-103450000D01*
X202638095Y-103402380D01*
X203400000Y-104307142D02*
X203447619Y-104354761D01*
X203400000Y-104402380D01*
X203352380Y-104354761D01*
X203400000Y-104307142D01*
X203400000Y-104402380D01*
X203828571Y-103497619D02*
X203876190Y-103450000D01*
X203971428Y-103402380D01*
X204209523Y-103402380D01*
X204304761Y-103450000D01*
X204352380Y-103497619D01*
X204400000Y-103592857D01*
X204400000Y-103688095D01*
X204352380Y-103830952D01*
X203780952Y-104402380D01*
X204400000Y-104402380D01*
X205590476Y-104402380D02*
X205590476Y-103402380D01*
X205590476Y-103783333D02*
X205685714Y-103735714D01*
X205876190Y-103735714D01*
X205971428Y-103783333D01*
X206019047Y-103830952D01*
X206066666Y-103926190D01*
X206066666Y-104211904D01*
X206019047Y-104307142D01*
X205971428Y-104354761D01*
X205876190Y-104402380D01*
X205685714Y-104402380D01*
X205590476Y-104354761D01*
X206400000Y-103735714D02*
X206638095Y-104402380D01*
X206876190Y-103735714D02*
X206638095Y-104402380D01*
X206542857Y-104640476D01*
X206495238Y-104688095D01*
X206400000Y-104735714D01*
X208019047Y-104402380D02*
X208019047Y-103402380D01*
X208590476Y-104402380D01*
X208590476Y-103402380D01*
X209209523Y-104402380D02*
X209114285Y-104354761D01*
X209066666Y-104307142D01*
X209019047Y-104211904D01*
X209019047Y-103926190D01*
X209066666Y-103830952D01*
X209114285Y-103783333D01*
X209209523Y-103735714D01*
X209352380Y-103735714D01*
X209447619Y-103783333D01*
X209495238Y-103830952D01*
X209542857Y-103926190D01*
X209542857Y-104211904D01*
X209495238Y-104307142D01*
X209447619Y-104354761D01*
X209352380Y-104402380D01*
X209209523Y-104402380D01*
X209971428Y-104402380D02*
X209971428Y-103735714D01*
X209971428Y-103926190D02*
X210019047Y-103830952D01*
X210066666Y-103783333D01*
X210161904Y-103735714D01*
X210257142Y-103735714D01*
X210590476Y-104402380D02*
X210590476Y-103735714D01*
X210590476Y-103402380D02*
X210542857Y-103450000D01*
X210590476Y-103497619D01*
X210638095Y-103450000D01*
X210590476Y-103402380D01*
X210590476Y-103497619D01*
X210700000Y-82461904D02*
X210652380Y-82557142D01*
X210652380Y-82700000D01*
X210700000Y-82842857D01*
X210795238Y-82938095D01*
X210890476Y-82985714D01*
X211080952Y-83033333D01*
X211223809Y-83033333D01*
X211414285Y-82985714D01*
X211509523Y-82938095D01*
X211604761Y-82842857D01*
X211652380Y-82700000D01*
X211652380Y-82604761D01*
X211604761Y-82461904D01*
X211557142Y-82414285D01*
X211223809Y-82414285D01*
X211223809Y-82604761D01*
X211652380Y-81985714D02*
X210652380Y-81985714D01*
X211652380Y-81414285D01*
X210652380Y-81414285D01*
X211652380Y-80938095D02*
X210652380Y-80938095D01*
X210652380Y-80700000D01*
X210700000Y-80557142D01*
X210795238Y-80461904D01*
X210890476Y-80414285D01*
X211080952Y-80366666D01*
X211223809Y-80366666D01*
X211414285Y-80414285D01*
X211509523Y-80461904D01*
X211604761Y-80557142D01*
X211652380Y-80700000D01*
X211652380Y-80938095D01*
X211652380Y-95757142D02*
X211652380Y-96233333D01*
X210652380Y-96233333D01*
X211652380Y-95423809D02*
X210985714Y-95423809D01*
X210652380Y-95423809D02*
X210700000Y-95471428D01*
X210747619Y-95423809D01*
X210700000Y-95376190D01*
X210652380Y-95423809D01*
X210747619Y-95423809D01*
X210652380Y-95090476D02*
X211652380Y-94757142D01*
X210652380Y-94423809D01*
X210752380Y-88361904D02*
X211752380Y-88028571D01*
X210752380Y-87695238D01*
X210752380Y-87171428D02*
X210752380Y-86980952D01*
X210800000Y-86885714D01*
X210895238Y-86790476D01*
X211085714Y-86742857D01*
X211419047Y-86742857D01*
X211609523Y-86790476D01*
X211704761Y-86885714D01*
X211752380Y-86980952D01*
X211752380Y-87171428D01*
X211704761Y-87266666D01*
X211609523Y-87361904D01*
X211419047Y-87409523D01*
X211085714Y-87409523D01*
X210895238Y-87361904D01*
X210800000Y-87266666D01*
X210752380Y-87171428D01*
X210752380Y-86314285D02*
X211561904Y-86314285D01*
X211657142Y-86266666D01*
X211704761Y-86219047D01*
X211752380Y-86123809D01*
X211752380Y-85933333D01*
X211704761Y-85838095D01*
X211657142Y-85790476D01*
X211561904Y-85742857D01*
X210752380Y-85742857D01*
X210752380Y-85409523D02*
X210752380Y-84838095D01*
X211752380Y-85123809D02*
X210752380Y-85123809D01*
X173047619Y-85604761D02*
X172047619Y-85938095D01*
X173047619Y-86271428D01*
X172047619Y-86604761D02*
X173047619Y-86604761D01*
X172047619Y-87080952D02*
X173047619Y-87080952D01*
X172047619Y-87652380D01*
X173047619Y-87652380D01*
X210700000Y-99061904D02*
X210652380Y-99157142D01*
X210652380Y-99300000D01*
X210700000Y-99442857D01*
X210795238Y-99538095D01*
X210890476Y-99585714D01*
X211080952Y-99633333D01*
X211223809Y-99633333D01*
X211414285Y-99585714D01*
X211509523Y-99538095D01*
X211604761Y-99442857D01*
X211652380Y-99300000D01*
X211652380Y-99204761D01*
X211604761Y-99061904D01*
X211557142Y-99014285D01*
X211223809Y-99014285D01*
X211223809Y-99204761D01*
X211652380Y-98585714D02*
X210652380Y-98585714D01*
X211652380Y-98014285D01*
X210652380Y-98014285D01*
X211652380Y-97538095D02*
X210652380Y-97538095D01*
X210652380Y-97300000D01*
X210700000Y-97157142D01*
X210795238Y-97061904D01*
X210890476Y-97014285D01*
X211080952Y-96966666D01*
X211223809Y-96966666D01*
X211414285Y-97014285D01*
X211509523Y-97061904D01*
X211604761Y-97157142D01*
X211652380Y-97300000D01*
X211652380Y-97538095D01*
X173100000Y-99938095D02*
X173147619Y-99842857D01*
X173147619Y-99700000D01*
X173100000Y-99557142D01*
X173004761Y-99461904D01*
X172909523Y-99414285D01*
X172719047Y-99366666D01*
X172576190Y-99366666D01*
X172385714Y-99414285D01*
X172290476Y-99461904D01*
X172195238Y-99557142D01*
X172147619Y-99700000D01*
X172147619Y-99795238D01*
X172195238Y-99938095D01*
X172242857Y-99985714D01*
X172576190Y-99985714D01*
X172576190Y-99795238D01*
X172147619Y-100414285D02*
X173147619Y-100414285D01*
X172147619Y-100985714D01*
X173147619Y-100985714D01*
X172147619Y-101461904D02*
X173147619Y-101461904D01*
X173147619Y-101700000D01*
X173100000Y-101842857D01*
X173004761Y-101938095D01*
X172909523Y-101985714D01*
X172719047Y-102033333D01*
X172576190Y-102033333D01*
X172385714Y-101985714D01*
X172290476Y-101938095D01*
X172195238Y-101842857D01*
X172147619Y-101700000D01*
X172147619Y-101461904D01*
X172195238Y-92238095D02*
X172147619Y-92380952D01*
X172147619Y-92619047D01*
X172195238Y-92714285D01*
X172242857Y-92761904D01*
X172338095Y-92809523D01*
X172433333Y-92809523D01*
X172528571Y-92761904D01*
X172576190Y-92714285D01*
X172623809Y-92619047D01*
X172671428Y-92428571D01*
X172719047Y-92333333D01*
X172766666Y-92285714D01*
X172861904Y-92238095D01*
X172957142Y-92238095D01*
X173052380Y-92285714D01*
X173100000Y-92333333D01*
X173147619Y-92428571D01*
X173147619Y-92666666D01*
X173100000Y-92809523D01*
X172147619Y-93761904D02*
X172147619Y-93190476D01*
X172147619Y-93476190D02*
X173147619Y-93476190D01*
X173004761Y-93380952D01*
X172909523Y-93285714D01*
X172861904Y-93190476D01*
X173100000Y-81038095D02*
X173147619Y-80942857D01*
X173147619Y-80800000D01*
X173100000Y-80657142D01*
X173004761Y-80561904D01*
X172909523Y-80514285D01*
X172719047Y-80466666D01*
X172576190Y-80466666D01*
X172385714Y-80514285D01*
X172290476Y-80561904D01*
X172195238Y-80657142D01*
X172147619Y-80800000D01*
X172147619Y-80895238D01*
X172195238Y-81038095D01*
X172242857Y-81085714D01*
X172576190Y-81085714D01*
X172576190Y-80895238D01*
X172147619Y-81514285D02*
X173147619Y-81514285D01*
X172147619Y-82085714D01*
X173147619Y-82085714D01*
X172147619Y-82561904D02*
X173147619Y-82561904D01*
X173147619Y-82800000D01*
X173100000Y-82942857D01*
X173004761Y-83038095D01*
X172909523Y-83085714D01*
X172719047Y-83133333D01*
X172576190Y-83133333D01*
X172385714Y-83085714D01*
X172290476Y-83038095D01*
X172195238Y-82942857D01*
X172147619Y-82800000D01*
X172147619Y-82561904D01*
X172195238Y-94838095D02*
X172147619Y-94980952D01*
X172147619Y-95219047D01*
X172195238Y-95314285D01*
X172242857Y-95361904D01*
X172338095Y-95409523D01*
X172433333Y-95409523D01*
X172528571Y-95361904D01*
X172576190Y-95314285D01*
X172623809Y-95219047D01*
X172671428Y-95028571D01*
X172719047Y-94933333D01*
X172766666Y-94885714D01*
X172861904Y-94838095D01*
X172957142Y-94838095D01*
X173052380Y-94885714D01*
X173100000Y-94933333D01*
X173147619Y-95028571D01*
X173147619Y-95266666D01*
X173100000Y-95409523D01*
X173052380Y-95790476D02*
X173100000Y-95838095D01*
X173147619Y-95933333D01*
X173147619Y-96171428D01*
X173100000Y-96266666D01*
X173052380Y-96314285D01*
X172957142Y-96361904D01*
X172861904Y-96361904D01*
X172719047Y-96314285D01*
X172147619Y-95742857D01*
X172147619Y-96361904D01*
X172147619Y-97238095D02*
X173147619Y-97238095D01*
X173147619Y-97619047D01*
X173100000Y-97714285D01*
X173052380Y-97761904D01*
X172957142Y-97809523D01*
X172814285Y-97809523D01*
X172719047Y-97761904D01*
X172671428Y-97714285D01*
X172623809Y-97619047D01*
X172623809Y-97238095D01*
X173100000Y-98761904D02*
X173147619Y-98666666D01*
X173147619Y-98523809D01*
X173100000Y-98380952D01*
X173004761Y-98285714D01*
X172909523Y-98238095D01*
X172719047Y-98190476D01*
X172576190Y-98190476D01*
X172385714Y-98238095D01*
X172290476Y-98285714D01*
X172195238Y-98380952D01*
X172147619Y-98523809D01*
X172147619Y-98619047D01*
X172195238Y-98761904D01*
X172242857Y-98809523D01*
X172576190Y-98809523D01*
X172576190Y-98619047D01*
D11*
X208250000Y-95500000D02*
X206550000Y-95500000D01*
X206550000Y-95500000D02*
X206550000Y-98050000D01*
X208250000Y-95500000D02*
X208250000Y-98050000D01*
X190500000Y-97420000D02*
X191500000Y-97420000D01*
X191500000Y-98780000D02*
X190500000Y-98780000D01*
X190500000Y-100320000D02*
X191500000Y-100320000D01*
X191500000Y-101680000D02*
X190500000Y-101680000D01*
X178700000Y-105780000D02*
X177700000Y-105780000D01*
X177700000Y-104420000D02*
X178700000Y-104420000D01*
X188480000Y-104000000D02*
X188480000Y-105000000D01*
X187120000Y-105000000D02*
X187120000Y-104000000D01*
X190500000Y-98920000D02*
X191500000Y-98920000D01*
X191500000Y-100280000D02*
X190500000Y-100280000D01*
X190500000Y-95920000D02*
X191500000Y-95920000D01*
X191500000Y-97280000D02*
X190500000Y-97280000D01*
X186980000Y-104000000D02*
X186980000Y-105000000D01*
X185620000Y-105000000D02*
X185620000Y-104000000D01*
X196800000Y-107980000D02*
X195800000Y-107980000D01*
X195800000Y-106620000D02*
X196800000Y-106620000D01*
X199400000Y-107980000D02*
X198400000Y-107980000D01*
X198400000Y-106620000D02*
X199400000Y-106620000D01*
X178400000Y-92020000D02*
X179400000Y-92020000D01*
X179400000Y-93380000D02*
X178400000Y-93380000D01*
X190500000Y-104820000D02*
X191500000Y-104820000D01*
X191500000Y-106180000D02*
X190500000Y-106180000D01*
X187580000Y-92900000D02*
X187580000Y-93900000D01*
X186220000Y-93900000D02*
X186220000Y-92900000D01*
X177700000Y-103020000D02*
X178700000Y-103020000D01*
X178700000Y-104380000D02*
X177700000Y-104380000D01*
X176600000Y-104200000D02*
X176600000Y-103200000D01*
X176600000Y-103200000D02*
X174500000Y-103200000D01*
X176600000Y-104200000D02*
X174500000Y-104200000D01*
X176600000Y-107000000D02*
X174500000Y-107000000D01*
X176600000Y-106000000D02*
X174500000Y-106000000D01*
X176600000Y-107000000D02*
X176600000Y-106000000D01*
X184800000Y-92980000D02*
X183800000Y-92980000D01*
X183800000Y-91620000D02*
X184800000Y-91620000D01*
X196800000Y-106480000D02*
X195800000Y-106480000D01*
X195800000Y-105120000D02*
X196800000Y-105120000D01*
X179650000Y-99700000D02*
X180350000Y-99700000D01*
X180350000Y-100900000D02*
X179650000Y-100900000D01*
X192480000Y-92600000D02*
X192480000Y-93600000D01*
X191120000Y-93600000D02*
X191120000Y-92600000D01*
X177200000Y-97620000D02*
X178200000Y-97620000D01*
X178200000Y-98980000D02*
X177200000Y-98980000D01*
X176600000Y-105600000D02*
X174500000Y-105600000D01*
X176600000Y-104600000D02*
X174500000Y-104600000D01*
X176600000Y-105600000D02*
X176600000Y-104600000D01*
X190500000Y-103320000D02*
X191500000Y-103320000D01*
X191500000Y-104680000D02*
X190500000Y-104680000D01*
X182200000Y-86020000D02*
X183200000Y-86020000D01*
X183200000Y-87380000D02*
X182200000Y-87380000D01*
X183000000Y-93250000D02*
X185550000Y-93250000D01*
X183000000Y-94950000D02*
X185550000Y-94950000D01*
X183000000Y-93250000D02*
X183000000Y-94950000D01*
X177700000Y-105820000D02*
X178700000Y-105820000D01*
X178700000Y-107180000D02*
X177700000Y-107180000D01*
X191350000Y-107600000D02*
X190650000Y-107600000D01*
X190650000Y-106400000D02*
X191350000Y-106400000D01*
X191450000Y-95800000D02*
X190750000Y-95800000D01*
X190750000Y-94600000D02*
X191450000Y-94600000D01*
X202800000Y-96950000D02*
X203800000Y-96950000D01*
X203800000Y-95250000D02*
X202800000Y-95250000D01*
X180050000Y-93600000D02*
X180750000Y-93600000D01*
X180750000Y-94800000D02*
X180050000Y-94800000D01*
X203800000Y-93350000D02*
X202800000Y-93350000D01*
X202800000Y-95050000D02*
X203800000Y-95050000D01*
X193350000Y-79800000D02*
X193350000Y-80800000D01*
X195050000Y-80800000D02*
X195050000Y-79800000D01*
X193250000Y-80800000D02*
X193250000Y-79800000D01*
X191550000Y-79800000D02*
X191550000Y-80800000D01*
X189700000Y-93450000D02*
X189700000Y-92750000D01*
X190900000Y-92750000D02*
X190900000Y-93450000D01*
X182350000Y-87500000D02*
X183050000Y-87500000D01*
X183050000Y-88700000D02*
X182350000Y-88700000D01*
X190750000Y-101900000D02*
X191450000Y-101900000D01*
X191450000Y-103100000D02*
X190750000Y-103100000D01*
X177650000Y-79900000D02*
X176950000Y-79900000D01*
X176950000Y-78700000D02*
X177650000Y-78700000D01*
X195000000Y-100650000D02*
X195000000Y-99950000D01*
X196200000Y-99950000D02*
X196200000Y-100650000D01*
X178200000Y-97400000D02*
X177500000Y-97400000D01*
X177500000Y-96200000D02*
X178200000Y-96200000D01*
X188900000Y-93050000D02*
X188900000Y-93750000D01*
X187700000Y-93750000D02*
X187700000Y-93050000D01*
X186550000Y-85000000D02*
X187250000Y-85000000D01*
X187250000Y-86200000D02*
X186550000Y-86200000D01*
X205280000Y-90500000D02*
X205280000Y-91700000D01*
X203520000Y-91700000D02*
X203520000Y-90500000D01*
X182000000Y-102950000D02*
X182000000Y-102250000D01*
X183200000Y-102250000D02*
X183200000Y-102950000D01*
D12*
X185140689Y-95846000D02*
X184759689Y-95846000D01*
X185140689Y-95592000D02*
X185140689Y-95846000D01*
X184759689Y-95592000D02*
X185140689Y-95592000D01*
X184759689Y-95846000D02*
X184759689Y-95592000D01*
X184640563Y-101154000D02*
X184259563Y-101154000D01*
X184640563Y-101408000D02*
X184640563Y-101154000D01*
X184259563Y-101408000D02*
X184640563Y-101408000D01*
X184259563Y-101154000D02*
X184259563Y-101408000D01*
X182481691Y-96044000D02*
X181744000Y-96044000D01*
X186656000Y-96782006D02*
X186656000Y-96044000D01*
X185918309Y-100956000D02*
X186656000Y-100956000D01*
X181744000Y-100217994D02*
X181744000Y-100956000D01*
X181744000Y-96044000D02*
X181744000Y-96782006D01*
X186656000Y-96044000D02*
X185918309Y-96044000D01*
X186656000Y-100956000D02*
X186656000Y-100217994D01*
X181744000Y-100956000D02*
X182481691Y-100956000D01*
D11*
X177700000Y-81380000D02*
X176700000Y-81380000D01*
X176700000Y-80020000D02*
X177700000Y-80020000D01*
X181622000Y-85778000D02*
X185178000Y-85778000D01*
X185178000Y-85778000D02*
X185178000Y-85434888D01*
X185178000Y-82222000D02*
X181622000Y-82222000D01*
X181622000Y-82222000D02*
X181622000Y-82565112D01*
X181622000Y-85434888D02*
X181622000Y-85778000D01*
X185178000Y-82565112D02*
X185178000Y-82222000D01*
X181327000Y-83025021D02*
G75*
G03*
X181327000Y-83025021I-127000J0D01*
G01*
D12*
X196028800Y-91525600D02*
X196028800Y-90829850D01*
X196028800Y-88274400D02*
X195660139Y-88274400D01*
X192371200Y-88274400D02*
X192371200Y-88462150D01*
X192371200Y-91525600D02*
X192739861Y-91525600D01*
X195660139Y-91525600D02*
X196028800Y-91525600D01*
X192739861Y-88274400D02*
X192371200Y-88274400D01*
X196028800Y-88462150D02*
X196028800Y-88274400D01*
X192371200Y-90829850D02*
X192371200Y-91525600D01*
D11*
X186300000Y-83120000D02*
X187500000Y-83120000D01*
X187500000Y-84880000D02*
X186300000Y-84880000D01*
D12*
X196028800Y-86925600D02*
X196028800Y-86229850D01*
X196028800Y-83674400D02*
X195660139Y-83674400D01*
X192371200Y-83674400D02*
X192371200Y-83862150D01*
X192371200Y-86925600D02*
X192739861Y-86925600D01*
X195660139Y-86925600D02*
X196028800Y-86925600D01*
X192739861Y-83674400D02*
X192371200Y-83674400D01*
X196028800Y-83862150D02*
X196028800Y-83674400D01*
X192371200Y-86229850D02*
X192371200Y-86925600D01*
D11*
X208600000Y-105200000D02*
X210600000Y-105200000D01*
X208600000Y-108000000D02*
X208600000Y-105200000D01*
X210600000Y-108000000D02*
X208600000Y-108000000D01*
X210600000Y-105200000D02*
X210600000Y-108000000D01*
D13*
X196900000Y-90800000D02*
X196900000Y-91000000D01*
X196900000Y-91000000D02*
X202900000Y-91000000D01*
X202900000Y-91000000D02*
X202900000Y-90800000D01*
X196900000Y-85200000D02*
X196900000Y-85000000D01*
X196900000Y-85000000D02*
X202900000Y-85000000D01*
X202900000Y-85000000D02*
X202900000Y-85200000D01*
D11*
X180778000Y-81522000D02*
X177222000Y-81522000D01*
X177222000Y-81522000D02*
X177222000Y-81865112D01*
X177222000Y-85078000D02*
X180778000Y-85078000D01*
X180778000Y-85078000D02*
X180778000Y-84734888D01*
X180778000Y-81865112D02*
X180778000Y-81522000D01*
X177222000Y-84734888D02*
X177222000Y-85078000D01*
X181327000Y-84274979D02*
G75*
G03*
X181327000Y-84274979I-127000J0D01*
G01*
X208022000Y-90022000D02*
X208022000Y-93578000D01*
X208022000Y-93578000D02*
X208365112Y-93578000D01*
X211578000Y-93578000D02*
X211578000Y-90022000D01*
X211578000Y-90022000D02*
X211234888Y-90022000D01*
X208365112Y-90022000D02*
X208022000Y-90022000D01*
X211234888Y-93578000D02*
X211578000Y-93578000D01*
X210901979Y-89600000D02*
G75*
G03*
X210901979Y-89600000I-127000J0D01*
G01*
X184100000Y-104950000D02*
X184100000Y-104250000D01*
X185300000Y-104250000D02*
X185300000Y-104950000D01*
D10*
X206252380Y-97738095D02*
X205252380Y-97738095D01*
X205252380Y-97500000D01*
X205300000Y-97357142D01*
X205395238Y-97261904D01*
X205490476Y-97214285D01*
X205680952Y-97166666D01*
X205823809Y-97166666D01*
X206014285Y-97214285D01*
X206109523Y-97261904D01*
X206204761Y-97357142D01*
X206252380Y-97500000D01*
X206252380Y-97738095D01*
X205252380Y-96261904D02*
X205252380Y-96738095D01*
X205728571Y-96785714D01*
X205680952Y-96738095D01*
X205633333Y-96642857D01*
X205633333Y-96404761D01*
X205680952Y-96309523D01*
X205728571Y-96261904D01*
X205823809Y-96214285D01*
X206061904Y-96214285D01*
X206157142Y-96261904D01*
X206204761Y-96309523D01*
X206252380Y-96404761D01*
X206252380Y-96642857D01*
X206204761Y-96738095D01*
X206157142Y-96785714D01*
X192757142Y-98552380D02*
X192423809Y-98076190D01*
X192185714Y-98552380D02*
X192185714Y-97552380D01*
X192566666Y-97552380D01*
X192661904Y-97600000D01*
X192709523Y-97647619D01*
X192757142Y-97742857D01*
X192757142Y-97885714D01*
X192709523Y-97980952D01*
X192661904Y-98028571D01*
X192566666Y-98076190D01*
X192185714Y-98076190D01*
X193138095Y-97647619D02*
X193185714Y-97600000D01*
X193280952Y-97552380D01*
X193519047Y-97552380D01*
X193614285Y-97600000D01*
X193661904Y-97647619D01*
X193709523Y-97742857D01*
X193709523Y-97838095D01*
X193661904Y-97980952D01*
X193090476Y-98552380D01*
X193709523Y-98552380D01*
X194042857Y-97552380D02*
X194661904Y-97552380D01*
X194328571Y-97933333D01*
X194471428Y-97933333D01*
X194566666Y-97980952D01*
X194614285Y-98028571D01*
X194661904Y-98123809D01*
X194661904Y-98361904D01*
X194614285Y-98457142D01*
X194566666Y-98504761D01*
X194471428Y-98552380D01*
X194185714Y-98552380D01*
X194090476Y-98504761D01*
X194042857Y-98457142D01*
X192757142Y-101552380D02*
X192423809Y-101076190D01*
X192185714Y-101552380D02*
X192185714Y-100552380D01*
X192566666Y-100552380D01*
X192661904Y-100600000D01*
X192709523Y-100647619D01*
X192757142Y-100742857D01*
X192757142Y-100885714D01*
X192709523Y-100980952D01*
X192661904Y-101028571D01*
X192566666Y-101076190D01*
X192185714Y-101076190D01*
X193138095Y-100647619D02*
X193185714Y-100600000D01*
X193280952Y-100552380D01*
X193519047Y-100552380D01*
X193614285Y-100600000D01*
X193661904Y-100647619D01*
X193709523Y-100742857D01*
X193709523Y-100838095D01*
X193661904Y-100980952D01*
X193090476Y-101552380D01*
X193709523Y-101552380D01*
X194661904Y-101552380D02*
X194090476Y-101552380D01*
X194376190Y-101552380D02*
X194376190Y-100552380D01*
X194280952Y-100695238D01*
X194185714Y-100790476D01*
X194090476Y-100838095D01*
X179957142Y-105552380D02*
X179623809Y-105076190D01*
X179385714Y-105552380D02*
X179385714Y-104552380D01*
X179766666Y-104552380D01*
X179861904Y-104600000D01*
X179909523Y-104647619D01*
X179957142Y-104742857D01*
X179957142Y-104885714D01*
X179909523Y-104980952D01*
X179861904Y-105028571D01*
X179766666Y-105076190D01*
X179385714Y-105076190D01*
X180909523Y-105552380D02*
X180338095Y-105552380D01*
X180623809Y-105552380D02*
X180623809Y-104552380D01*
X180528571Y-104695238D01*
X180433333Y-104790476D01*
X180338095Y-104838095D01*
X181242857Y-104552380D02*
X181909523Y-104552380D01*
X181480952Y-105552380D01*
X188252380Y-107542857D02*
X187776190Y-107876190D01*
X188252380Y-108114285D02*
X187252380Y-108114285D01*
X187252380Y-107733333D01*
X187300000Y-107638095D01*
X187347619Y-107590476D01*
X187442857Y-107542857D01*
X187585714Y-107542857D01*
X187680952Y-107590476D01*
X187728571Y-107638095D01*
X187776190Y-107733333D01*
X187776190Y-108114285D01*
X188252380Y-106590476D02*
X188252380Y-107161904D01*
X188252380Y-106876190D02*
X187252380Y-106876190D01*
X187395238Y-106971428D01*
X187490476Y-107066666D01*
X187538095Y-107161904D01*
X187680952Y-106019047D02*
X187633333Y-106114285D01*
X187585714Y-106161904D01*
X187490476Y-106209523D01*
X187442857Y-106209523D01*
X187347619Y-106161904D01*
X187300000Y-106114285D01*
X187252380Y-106019047D01*
X187252380Y-105828571D01*
X187300000Y-105733333D01*
X187347619Y-105685714D01*
X187442857Y-105638095D01*
X187490476Y-105638095D01*
X187585714Y-105685714D01*
X187633333Y-105733333D01*
X187680952Y-105828571D01*
X187680952Y-106019047D01*
X187728571Y-106114285D01*
X187776190Y-106161904D01*
X187871428Y-106209523D01*
X188061904Y-106209523D01*
X188157142Y-106161904D01*
X188204761Y-106114285D01*
X188252380Y-106019047D01*
X188252380Y-105828571D01*
X188204761Y-105733333D01*
X188157142Y-105685714D01*
X188061904Y-105638095D01*
X187871428Y-105638095D01*
X187776190Y-105685714D01*
X187728571Y-105733333D01*
X187680952Y-105828571D01*
X192857142Y-100052380D02*
X192523809Y-99576190D01*
X192285714Y-100052380D02*
X192285714Y-99052380D01*
X192666666Y-99052380D01*
X192761904Y-99100000D01*
X192809523Y-99147619D01*
X192857142Y-99242857D01*
X192857142Y-99385714D01*
X192809523Y-99480952D01*
X192761904Y-99528571D01*
X192666666Y-99576190D01*
X192285714Y-99576190D01*
X193238095Y-99147619D02*
X193285714Y-99100000D01*
X193380952Y-99052380D01*
X193619047Y-99052380D01*
X193714285Y-99100000D01*
X193761904Y-99147619D01*
X193809523Y-99242857D01*
X193809523Y-99338095D01*
X193761904Y-99480952D01*
X193190476Y-100052380D01*
X193809523Y-100052380D01*
X194428571Y-99052380D02*
X194523809Y-99052380D01*
X194619047Y-99100000D01*
X194666666Y-99147619D01*
X194714285Y-99242857D01*
X194761904Y-99433333D01*
X194761904Y-99671428D01*
X194714285Y-99861904D01*
X194666666Y-99957142D01*
X194619047Y-100004761D01*
X194523809Y-100052380D01*
X194428571Y-100052380D01*
X194333333Y-100004761D01*
X194285714Y-99957142D01*
X194238095Y-99861904D01*
X194190476Y-99671428D01*
X194190476Y-99433333D01*
X194238095Y-99242857D01*
X194285714Y-99147619D01*
X194333333Y-99100000D01*
X194428571Y-99052380D01*
X192757142Y-97052380D02*
X192423809Y-96576190D01*
X192185714Y-97052380D02*
X192185714Y-96052380D01*
X192566666Y-96052380D01*
X192661904Y-96100000D01*
X192709523Y-96147619D01*
X192757142Y-96242857D01*
X192757142Y-96385714D01*
X192709523Y-96480952D01*
X192661904Y-96528571D01*
X192566666Y-96576190D01*
X192185714Y-96576190D01*
X193138095Y-96147619D02*
X193185714Y-96100000D01*
X193280952Y-96052380D01*
X193519047Y-96052380D01*
X193614285Y-96100000D01*
X193661904Y-96147619D01*
X193709523Y-96242857D01*
X193709523Y-96338095D01*
X193661904Y-96480952D01*
X193090476Y-97052380D01*
X193709523Y-97052380D01*
X194090476Y-96147619D02*
X194138095Y-96100000D01*
X194233333Y-96052380D01*
X194471428Y-96052380D01*
X194566666Y-96100000D01*
X194614285Y-96147619D01*
X194661904Y-96242857D01*
X194661904Y-96338095D01*
X194614285Y-96480952D01*
X194042857Y-97052380D01*
X194661904Y-97052380D01*
X186752380Y-107542857D02*
X186276190Y-107876190D01*
X186752380Y-108114285D02*
X185752380Y-108114285D01*
X185752380Y-107733333D01*
X185800000Y-107638095D01*
X185847619Y-107590476D01*
X185942857Y-107542857D01*
X186085714Y-107542857D01*
X186180952Y-107590476D01*
X186228571Y-107638095D01*
X186276190Y-107733333D01*
X186276190Y-108114285D01*
X186752380Y-106590476D02*
X186752380Y-107161904D01*
X186752380Y-106876190D02*
X185752380Y-106876190D01*
X185895238Y-106971428D01*
X185990476Y-107066666D01*
X186038095Y-107161904D01*
X186752380Y-106114285D02*
X186752380Y-105923809D01*
X186704761Y-105828571D01*
X186657142Y-105780952D01*
X186514285Y-105685714D01*
X186323809Y-105638095D01*
X185942857Y-105638095D01*
X185847619Y-105685714D01*
X185800000Y-105733333D01*
X185752380Y-105828571D01*
X185752380Y-106019047D01*
X185800000Y-106114285D01*
X185847619Y-106161904D01*
X185942857Y-106209523D01*
X186180952Y-106209523D01*
X186276190Y-106161904D01*
X186323809Y-106114285D01*
X186371428Y-106019047D01*
X186371428Y-105828571D01*
X186323809Y-105733333D01*
X186276190Y-105685714D01*
X186180952Y-105638095D01*
X193357142Y-108252380D02*
X193023809Y-107776190D01*
X192785714Y-108252380D02*
X192785714Y-107252380D01*
X193166666Y-107252380D01*
X193261904Y-107300000D01*
X193309523Y-107347619D01*
X193357142Y-107442857D01*
X193357142Y-107585714D01*
X193309523Y-107680952D01*
X193261904Y-107728571D01*
X193166666Y-107776190D01*
X192785714Y-107776190D01*
X194309523Y-108252380D02*
X193738095Y-108252380D01*
X194023809Y-108252380D02*
X194023809Y-107252380D01*
X193928571Y-107395238D01*
X193833333Y-107490476D01*
X193738095Y-107538095D01*
X195166666Y-107252380D02*
X194976190Y-107252380D01*
X194880952Y-107300000D01*
X194833333Y-107347619D01*
X194738095Y-107490476D01*
X194690476Y-107680952D01*
X194690476Y-108061904D01*
X194738095Y-108157142D01*
X194785714Y-108204761D01*
X194880952Y-108252380D01*
X195071428Y-108252380D01*
X195166666Y-108204761D01*
X195214285Y-108157142D01*
X195261904Y-108061904D01*
X195261904Y-107823809D01*
X195214285Y-107728571D01*
X195166666Y-107680952D01*
X195071428Y-107633333D01*
X194880952Y-107633333D01*
X194785714Y-107680952D01*
X194738095Y-107728571D01*
X194690476Y-107823809D01*
X200657142Y-107752380D02*
X200323809Y-107276190D01*
X200085714Y-107752380D02*
X200085714Y-106752380D01*
X200466666Y-106752380D01*
X200561904Y-106800000D01*
X200609523Y-106847619D01*
X200657142Y-106942857D01*
X200657142Y-107085714D01*
X200609523Y-107180952D01*
X200561904Y-107228571D01*
X200466666Y-107276190D01*
X200085714Y-107276190D01*
X201609523Y-107752380D02*
X201038095Y-107752380D01*
X201323809Y-107752380D02*
X201323809Y-106752380D01*
X201228571Y-106895238D01*
X201133333Y-106990476D01*
X201038095Y-107038095D01*
X202228571Y-106752380D02*
X202323809Y-106752380D01*
X202419047Y-106800000D01*
X202466666Y-106847619D01*
X202514285Y-106942857D01*
X202561904Y-107133333D01*
X202561904Y-107371428D01*
X202514285Y-107561904D01*
X202466666Y-107657142D01*
X202419047Y-107704761D01*
X202323809Y-107752380D01*
X202228571Y-107752380D01*
X202133333Y-107704761D01*
X202085714Y-107657142D01*
X202038095Y-107561904D01*
X201990476Y-107371428D01*
X201990476Y-107133333D01*
X202038095Y-106942857D01*
X202085714Y-106847619D01*
X202133333Y-106800000D01*
X202228571Y-106752380D01*
X176833333Y-93152380D02*
X176500000Y-92676190D01*
X176261904Y-93152380D02*
X176261904Y-92152380D01*
X176642857Y-92152380D01*
X176738095Y-92200000D01*
X176785714Y-92247619D01*
X176833333Y-92342857D01*
X176833333Y-92485714D01*
X176785714Y-92580952D01*
X176738095Y-92628571D01*
X176642857Y-92676190D01*
X176261904Y-92676190D01*
X177404761Y-92580952D02*
X177309523Y-92533333D01*
X177261904Y-92485714D01*
X177214285Y-92390476D01*
X177214285Y-92342857D01*
X177261904Y-92247619D01*
X177309523Y-92200000D01*
X177404761Y-92152380D01*
X177595238Y-92152380D01*
X177690476Y-92200000D01*
X177738095Y-92247619D01*
X177785714Y-92342857D01*
X177785714Y-92390476D01*
X177738095Y-92485714D01*
X177690476Y-92533333D01*
X177595238Y-92580952D01*
X177404761Y-92580952D01*
X177309523Y-92628571D01*
X177261904Y-92676190D01*
X177214285Y-92771428D01*
X177214285Y-92961904D01*
X177261904Y-93057142D01*
X177309523Y-93104761D01*
X177404761Y-93152380D01*
X177595238Y-93152380D01*
X177690476Y-93104761D01*
X177738095Y-93057142D01*
X177785714Y-92961904D01*
X177785714Y-92771428D01*
X177738095Y-92676190D01*
X177690476Y-92628571D01*
X177595238Y-92580952D01*
X192833333Y-105852380D02*
X192500000Y-105376190D01*
X192261904Y-105852380D02*
X192261904Y-104852380D01*
X192642857Y-104852380D01*
X192738095Y-104900000D01*
X192785714Y-104947619D01*
X192833333Y-105042857D01*
X192833333Y-105185714D01*
X192785714Y-105280952D01*
X192738095Y-105328571D01*
X192642857Y-105376190D01*
X192261904Y-105376190D01*
X193214285Y-104947619D02*
X193261904Y-104900000D01*
X193357142Y-104852380D01*
X193595238Y-104852380D01*
X193690476Y-104900000D01*
X193738095Y-104947619D01*
X193785714Y-105042857D01*
X193785714Y-105138095D01*
X193738095Y-105280952D01*
X193166666Y-105852380D01*
X193785714Y-105852380D01*
X187352380Y-91666666D02*
X186876190Y-92000000D01*
X187352380Y-92238095D02*
X186352380Y-92238095D01*
X186352380Y-91857142D01*
X186400000Y-91761904D01*
X186447619Y-91714285D01*
X186542857Y-91666666D01*
X186685714Y-91666666D01*
X186780952Y-91714285D01*
X186828571Y-91761904D01*
X186876190Y-91857142D01*
X186876190Y-92238095D01*
X186352380Y-91333333D02*
X186352380Y-90666666D01*
X187352380Y-91095238D01*
X179957142Y-104252380D02*
X179623809Y-103776190D01*
X179385714Y-104252380D02*
X179385714Y-103252380D01*
X179766666Y-103252380D01*
X179861904Y-103300000D01*
X179909523Y-103347619D01*
X179957142Y-103442857D01*
X179957142Y-103585714D01*
X179909523Y-103680952D01*
X179861904Y-103728571D01*
X179766666Y-103776190D01*
X179385714Y-103776190D01*
X180909523Y-104252380D02*
X180338095Y-104252380D01*
X180623809Y-104252380D02*
X180623809Y-103252380D01*
X180528571Y-103395238D01*
X180433333Y-103490476D01*
X180338095Y-103538095D01*
X181766666Y-103585714D02*
X181766666Y-104252380D01*
X181528571Y-103204761D02*
X181290476Y-103919047D01*
X181909523Y-103919047D01*
X172361904Y-104152380D02*
X172361904Y-103152380D01*
X172600000Y-103152380D01*
X172742857Y-103200000D01*
X172838095Y-103295238D01*
X172885714Y-103390476D01*
X172933333Y-103580952D01*
X172933333Y-103723809D01*
X172885714Y-103914285D01*
X172838095Y-104009523D01*
X172742857Y-104104761D01*
X172600000Y-104152380D01*
X172361904Y-104152380D01*
X173314285Y-103247619D02*
X173361904Y-103200000D01*
X173457142Y-103152380D01*
X173695238Y-103152380D01*
X173790476Y-103200000D01*
X173838095Y-103247619D01*
X173885714Y-103342857D01*
X173885714Y-103438095D01*
X173838095Y-103580952D01*
X173266666Y-104152380D01*
X173885714Y-104152380D01*
X172361904Y-106952380D02*
X172361904Y-105952380D01*
X172600000Y-105952380D01*
X172742857Y-106000000D01*
X172838095Y-106095238D01*
X172885714Y-106190476D01*
X172933333Y-106380952D01*
X172933333Y-106523809D01*
X172885714Y-106714285D01*
X172838095Y-106809523D01*
X172742857Y-106904761D01*
X172600000Y-106952380D01*
X172361904Y-106952380D01*
X173266666Y-105952380D02*
X173885714Y-105952380D01*
X173552380Y-106333333D01*
X173695238Y-106333333D01*
X173790476Y-106380952D01*
X173838095Y-106428571D01*
X173885714Y-106523809D01*
X173885714Y-106761904D01*
X173838095Y-106857142D01*
X173790476Y-106904761D01*
X173695238Y-106952380D01*
X173409523Y-106952380D01*
X173314285Y-106904761D01*
X173266666Y-106857142D01*
X183657142Y-91452380D02*
X183323809Y-90976190D01*
X183085714Y-91452380D02*
X183085714Y-90452380D01*
X183466666Y-90452380D01*
X183561904Y-90500000D01*
X183609523Y-90547619D01*
X183657142Y-90642857D01*
X183657142Y-90785714D01*
X183609523Y-90880952D01*
X183561904Y-90928571D01*
X183466666Y-90976190D01*
X183085714Y-90976190D01*
X184609523Y-91452380D02*
X184038095Y-91452380D01*
X184323809Y-91452380D02*
X184323809Y-90452380D01*
X184228571Y-90595238D01*
X184133333Y-90690476D01*
X184038095Y-90738095D01*
X185561904Y-91452380D02*
X184990476Y-91452380D01*
X185276190Y-91452380D02*
X185276190Y-90452380D01*
X185180952Y-90595238D01*
X185085714Y-90690476D01*
X184990476Y-90738095D01*
X198033333Y-106252380D02*
X197700000Y-105776190D01*
X197461904Y-106252380D02*
X197461904Y-105252380D01*
X197842857Y-105252380D01*
X197938095Y-105300000D01*
X197985714Y-105347619D01*
X198033333Y-105442857D01*
X198033333Y-105585714D01*
X197985714Y-105680952D01*
X197938095Y-105728571D01*
X197842857Y-105776190D01*
X197461904Y-105776190D01*
X198509523Y-106252380D02*
X198700000Y-106252380D01*
X198795238Y-106204761D01*
X198842857Y-106157142D01*
X198938095Y-106014285D01*
X198985714Y-105823809D01*
X198985714Y-105442857D01*
X198938095Y-105347619D01*
X198890476Y-105300000D01*
X198795238Y-105252380D01*
X198604761Y-105252380D01*
X198509523Y-105300000D01*
X198461904Y-105347619D01*
X198414285Y-105442857D01*
X198414285Y-105680952D01*
X198461904Y-105776190D01*
X198509523Y-105823809D01*
X198604761Y-105871428D01*
X198795238Y-105871428D01*
X198890476Y-105823809D01*
X198938095Y-105776190D01*
X198985714Y-105680952D01*
X176757142Y-100657142D02*
X176709523Y-100704761D01*
X176566666Y-100752380D01*
X176471428Y-100752380D01*
X176328571Y-100704761D01*
X176233333Y-100609523D01*
X176185714Y-100514285D01*
X176138095Y-100323809D01*
X176138095Y-100180952D01*
X176185714Y-99990476D01*
X176233333Y-99895238D01*
X176328571Y-99800000D01*
X176471428Y-99752380D01*
X176566666Y-99752380D01*
X176709523Y-99800000D01*
X176757142Y-99847619D01*
X177709523Y-100752380D02*
X177138095Y-100752380D01*
X177423809Y-100752380D02*
X177423809Y-99752380D01*
X177328571Y-99895238D01*
X177233333Y-99990476D01*
X177138095Y-100038095D01*
X178280952Y-100180952D02*
X178185714Y-100133333D01*
X178138095Y-100085714D01*
X178090476Y-99990476D01*
X178090476Y-99942857D01*
X178138095Y-99847619D01*
X178185714Y-99800000D01*
X178280952Y-99752380D01*
X178471428Y-99752380D01*
X178566666Y-99800000D01*
X178614285Y-99847619D01*
X178661904Y-99942857D01*
X178661904Y-99990476D01*
X178614285Y-100085714D01*
X178566666Y-100133333D01*
X178471428Y-100180952D01*
X178280952Y-100180952D01*
X178185714Y-100228571D01*
X178138095Y-100276190D01*
X178090476Y-100371428D01*
X178090476Y-100561904D01*
X178138095Y-100657142D01*
X178185714Y-100704761D01*
X178280952Y-100752380D01*
X178471428Y-100752380D01*
X178566666Y-100704761D01*
X178614285Y-100657142D01*
X178661904Y-100561904D01*
X178661904Y-100371428D01*
X178614285Y-100276190D01*
X178566666Y-100228571D01*
X178471428Y-100180952D01*
X193702380Y-94042857D02*
X193226190Y-94376190D01*
X193702380Y-94614285D02*
X192702380Y-94614285D01*
X192702380Y-94233333D01*
X192750000Y-94138095D01*
X192797619Y-94090476D01*
X192892857Y-94042857D01*
X193035714Y-94042857D01*
X193130952Y-94090476D01*
X193178571Y-94138095D01*
X193226190Y-94233333D01*
X193226190Y-94614285D01*
X193702380Y-93090476D02*
X193702380Y-93661904D01*
X193702380Y-93376190D02*
X192702380Y-93376190D01*
X192845238Y-93471428D01*
X192940476Y-93566666D01*
X192988095Y-93661904D01*
X192797619Y-92709523D02*
X192750000Y-92661904D01*
X192702380Y-92566666D01*
X192702380Y-92328571D01*
X192750000Y-92233333D01*
X192797619Y-92185714D01*
X192892857Y-92138095D01*
X192988095Y-92138095D01*
X193130952Y-92185714D01*
X193702380Y-92757142D01*
X193702380Y-92138095D01*
X179433333Y-98752380D02*
X179100000Y-98276190D01*
X178861904Y-98752380D02*
X178861904Y-97752380D01*
X179242857Y-97752380D01*
X179338095Y-97800000D01*
X179385714Y-97847619D01*
X179433333Y-97942857D01*
X179433333Y-98085714D01*
X179385714Y-98180952D01*
X179338095Y-98228571D01*
X179242857Y-98276190D01*
X178861904Y-98276190D01*
X180338095Y-97752380D02*
X179861904Y-97752380D01*
X179814285Y-98228571D01*
X179861904Y-98180952D01*
X179957142Y-98133333D01*
X180195238Y-98133333D01*
X180290476Y-98180952D01*
X180338095Y-98228571D01*
X180385714Y-98323809D01*
X180385714Y-98561904D01*
X180338095Y-98657142D01*
X180290476Y-98704761D01*
X180195238Y-98752380D01*
X179957142Y-98752380D01*
X179861904Y-98704761D01*
X179814285Y-98657142D01*
X172361904Y-105552380D02*
X172361904Y-104552380D01*
X172600000Y-104552380D01*
X172742857Y-104600000D01*
X172838095Y-104695238D01*
X172885714Y-104790476D01*
X172933333Y-104980952D01*
X172933333Y-105123809D01*
X172885714Y-105314285D01*
X172838095Y-105409523D01*
X172742857Y-105504761D01*
X172600000Y-105552380D01*
X172361904Y-105552380D01*
X173790476Y-104885714D02*
X173790476Y-105552380D01*
X173552380Y-104504761D02*
X173314285Y-105219047D01*
X173933333Y-105219047D01*
X192833333Y-104652380D02*
X192500000Y-104176190D01*
X192261904Y-104652380D02*
X192261904Y-103652380D01*
X192642857Y-103652380D01*
X192738095Y-103700000D01*
X192785714Y-103747619D01*
X192833333Y-103842857D01*
X192833333Y-103985714D01*
X192785714Y-104080952D01*
X192738095Y-104128571D01*
X192642857Y-104176190D01*
X192261904Y-104176190D01*
X193785714Y-104652380D02*
X193214285Y-104652380D01*
X193500000Y-104652380D02*
X193500000Y-103652380D01*
X193404761Y-103795238D01*
X193309523Y-103890476D01*
X193214285Y-103938095D01*
X184633333Y-87152380D02*
X184300000Y-86676190D01*
X184061904Y-87152380D02*
X184061904Y-86152380D01*
X184442857Y-86152380D01*
X184538095Y-86200000D01*
X184585714Y-86247619D01*
X184633333Y-86342857D01*
X184633333Y-86485714D01*
X184585714Y-86580952D01*
X184538095Y-86628571D01*
X184442857Y-86676190D01*
X184061904Y-86676190D01*
X185490476Y-86485714D02*
X185490476Y-87152380D01*
X185252380Y-86104761D02*
X185014285Y-86819047D01*
X185633333Y-86819047D01*
X181561904Y-95752380D02*
X181561904Y-94752380D01*
X181800000Y-94752380D01*
X181942857Y-94800000D01*
X182038095Y-94895238D01*
X182085714Y-94990476D01*
X182133333Y-95180952D01*
X182133333Y-95323809D01*
X182085714Y-95514285D01*
X182038095Y-95609523D01*
X181942857Y-95704761D01*
X181800000Y-95752380D01*
X181561904Y-95752380D01*
X183085714Y-95752380D02*
X182514285Y-95752380D01*
X182800000Y-95752380D02*
X182800000Y-94752380D01*
X182704761Y-94895238D01*
X182609523Y-94990476D01*
X182514285Y-95038095D01*
X179957142Y-106952380D02*
X179623809Y-106476190D01*
X179385714Y-106952380D02*
X179385714Y-105952380D01*
X179766666Y-105952380D01*
X179861904Y-106000000D01*
X179909523Y-106047619D01*
X179957142Y-106142857D01*
X179957142Y-106285714D01*
X179909523Y-106380952D01*
X179861904Y-106428571D01*
X179766666Y-106476190D01*
X179385714Y-106476190D01*
X180909523Y-106952380D02*
X180338095Y-106952380D01*
X180623809Y-106952380D02*
X180623809Y-105952380D01*
X180528571Y-106095238D01*
X180433333Y-106190476D01*
X180338095Y-106238095D01*
X181814285Y-105952380D02*
X181338095Y-105952380D01*
X181290476Y-106428571D01*
X181338095Y-106380952D01*
X181433333Y-106333333D01*
X181671428Y-106333333D01*
X181766666Y-106380952D01*
X181814285Y-106428571D01*
X181861904Y-106523809D01*
X181861904Y-106761904D01*
X181814285Y-106857142D01*
X181766666Y-106904761D01*
X181671428Y-106952380D01*
X181433333Y-106952380D01*
X181338095Y-106904761D01*
X181290476Y-106857142D01*
X192857142Y-106957142D02*
X192809523Y-107004761D01*
X192666666Y-107052380D01*
X192571428Y-107052380D01*
X192428571Y-107004761D01*
X192333333Y-106909523D01*
X192285714Y-106814285D01*
X192238095Y-106623809D01*
X192238095Y-106480952D01*
X192285714Y-106290476D01*
X192333333Y-106195238D01*
X192428571Y-106100000D01*
X192571428Y-106052380D01*
X192666666Y-106052380D01*
X192809523Y-106100000D01*
X192857142Y-106147619D01*
X193809523Y-107052380D02*
X193238095Y-107052380D01*
X193523809Y-107052380D02*
X193523809Y-106052380D01*
X193428571Y-106195238D01*
X193333333Y-106290476D01*
X193238095Y-106338095D01*
X194142857Y-106052380D02*
X194809523Y-106052380D01*
X194380952Y-107052380D01*
X193033333Y-95757142D02*
X192985714Y-95804761D01*
X192842857Y-95852380D01*
X192747619Y-95852380D01*
X192604761Y-95804761D01*
X192509523Y-95709523D01*
X192461904Y-95614285D01*
X192414285Y-95423809D01*
X192414285Y-95280952D01*
X192461904Y-95090476D01*
X192509523Y-94995238D01*
X192604761Y-94900000D01*
X192747619Y-94852380D01*
X192842857Y-94852380D01*
X192985714Y-94900000D01*
X193033333Y-94947619D01*
X193509523Y-95852380D02*
X193700000Y-95852380D01*
X193795238Y-95804761D01*
X193842857Y-95757142D01*
X193938095Y-95614285D01*
X193985714Y-95423809D01*
X193985714Y-95042857D01*
X193938095Y-94947619D01*
X193890476Y-94900000D01*
X193795238Y-94852380D01*
X193604761Y-94852380D01*
X193509523Y-94900000D01*
X193461904Y-94947619D01*
X193414285Y-95042857D01*
X193414285Y-95280952D01*
X193461904Y-95376190D01*
X193509523Y-95423809D01*
X193604761Y-95471428D01*
X193795238Y-95471428D01*
X193890476Y-95423809D01*
X193938095Y-95376190D01*
X193985714Y-95280952D01*
X199457142Y-96357142D02*
X199409523Y-96404761D01*
X199266666Y-96452380D01*
X199171428Y-96452380D01*
X199028571Y-96404761D01*
X198933333Y-96309523D01*
X198885714Y-96214285D01*
X198838095Y-96023809D01*
X198838095Y-95880952D01*
X198885714Y-95690476D01*
X198933333Y-95595238D01*
X199028571Y-95500000D01*
X199171428Y-95452380D01*
X199266666Y-95452380D01*
X199409523Y-95500000D01*
X199457142Y-95547619D01*
X200409523Y-96452380D02*
X199838095Y-96452380D01*
X200123809Y-96452380D02*
X200123809Y-95452380D01*
X200028571Y-95595238D01*
X199933333Y-95690476D01*
X199838095Y-95738095D01*
X201266666Y-95452380D02*
X201076190Y-95452380D01*
X200980952Y-95500000D01*
X200933333Y-95547619D01*
X200838095Y-95690476D01*
X200790476Y-95880952D01*
X200790476Y-96261904D01*
X200838095Y-96357142D01*
X200885714Y-96404761D01*
X200980952Y-96452380D01*
X201171428Y-96452380D01*
X201266666Y-96404761D01*
X201314285Y-96357142D01*
X201361904Y-96261904D01*
X201361904Y-96023809D01*
X201314285Y-95928571D01*
X201266666Y-95880952D01*
X201171428Y-95833333D01*
X200980952Y-95833333D01*
X200885714Y-95880952D01*
X200838095Y-95928571D01*
X200790476Y-96023809D01*
X177833333Y-94557142D02*
X177785714Y-94604761D01*
X177642857Y-94652380D01*
X177547619Y-94652380D01*
X177404761Y-94604761D01*
X177309523Y-94509523D01*
X177261904Y-94414285D01*
X177214285Y-94223809D01*
X177214285Y-94080952D01*
X177261904Y-93890476D01*
X177309523Y-93795238D01*
X177404761Y-93700000D01*
X177547619Y-93652380D01*
X177642857Y-93652380D01*
X177785714Y-93700000D01*
X177833333Y-93747619D01*
X178166666Y-93652380D02*
X178833333Y-93652380D01*
X178404761Y-94652380D01*
X199557142Y-94357142D02*
X199509523Y-94404761D01*
X199366666Y-94452380D01*
X199271428Y-94452380D01*
X199128571Y-94404761D01*
X199033333Y-94309523D01*
X198985714Y-94214285D01*
X198938095Y-94023809D01*
X198938095Y-93880952D01*
X198985714Y-93690476D01*
X199033333Y-93595238D01*
X199128571Y-93500000D01*
X199271428Y-93452380D01*
X199366666Y-93452380D01*
X199509523Y-93500000D01*
X199557142Y-93547619D01*
X200509523Y-94452380D02*
X199938095Y-94452380D01*
X200223809Y-94452380D02*
X200223809Y-93452380D01*
X200128571Y-93595238D01*
X200033333Y-93690476D01*
X199938095Y-93738095D01*
X201414285Y-93452380D02*
X200938095Y-93452380D01*
X200890476Y-93928571D01*
X200938095Y-93880952D01*
X201033333Y-93833333D01*
X201271428Y-93833333D01*
X201366666Y-93880952D01*
X201414285Y-93928571D01*
X201461904Y-94023809D01*
X201461904Y-94261904D01*
X201414285Y-94357142D01*
X201366666Y-94404761D01*
X201271428Y-94452380D01*
X201033333Y-94452380D01*
X200938095Y-94404761D01*
X200890476Y-94357142D01*
X196157142Y-81442857D02*
X196204761Y-81490476D01*
X196252380Y-81633333D01*
X196252380Y-81728571D01*
X196204761Y-81871428D01*
X196109523Y-81966666D01*
X196014285Y-82014285D01*
X195823809Y-82061904D01*
X195680952Y-82061904D01*
X195490476Y-82014285D01*
X195395238Y-81966666D01*
X195300000Y-81871428D01*
X195252380Y-81728571D01*
X195252380Y-81633333D01*
X195300000Y-81490476D01*
X195347619Y-81442857D01*
X196252380Y-80490476D02*
X196252380Y-81061904D01*
X196252380Y-80776190D02*
X195252380Y-80776190D01*
X195395238Y-80871428D01*
X195490476Y-80966666D01*
X195538095Y-81061904D01*
X195585714Y-79633333D02*
X196252380Y-79633333D01*
X195204761Y-79871428D02*
X195919047Y-80109523D01*
X195919047Y-79490476D01*
X191257142Y-80842857D02*
X191304761Y-80890476D01*
X191352380Y-81033333D01*
X191352380Y-81128571D01*
X191304761Y-81271428D01*
X191209523Y-81366666D01*
X191114285Y-81414285D01*
X190923809Y-81461904D01*
X190780952Y-81461904D01*
X190590476Y-81414285D01*
X190495238Y-81366666D01*
X190400000Y-81271428D01*
X190352380Y-81128571D01*
X190352380Y-81033333D01*
X190400000Y-80890476D01*
X190447619Y-80842857D01*
X191352380Y-79890476D02*
X191352380Y-80461904D01*
X191352380Y-80176190D02*
X190352380Y-80176190D01*
X190495238Y-80271428D01*
X190590476Y-80366666D01*
X190638095Y-80461904D01*
X190352380Y-79557142D02*
X190352380Y-78938095D01*
X190733333Y-79271428D01*
X190733333Y-79128571D01*
X190780952Y-79033333D01*
X190828571Y-78985714D01*
X190923809Y-78938095D01*
X191161904Y-78938095D01*
X191257142Y-78985714D01*
X191304761Y-79033333D01*
X191352380Y-79128571D01*
X191352380Y-79414285D01*
X191304761Y-79509523D01*
X191257142Y-79557142D01*
X190657142Y-90942857D02*
X190704761Y-90990476D01*
X190752380Y-91133333D01*
X190752380Y-91228571D01*
X190704761Y-91371428D01*
X190609523Y-91466666D01*
X190514285Y-91514285D01*
X190323809Y-91561904D01*
X190180952Y-91561904D01*
X189990476Y-91514285D01*
X189895238Y-91466666D01*
X189800000Y-91371428D01*
X189752380Y-91228571D01*
X189752380Y-91133333D01*
X189800000Y-90990476D01*
X189847619Y-90942857D01*
X190752380Y-89990476D02*
X190752380Y-90561904D01*
X190752380Y-90276190D02*
X189752380Y-90276190D01*
X189895238Y-90371428D01*
X189990476Y-90466666D01*
X190038095Y-90561904D01*
X190752380Y-89038095D02*
X190752380Y-89609523D01*
X190752380Y-89323809D02*
X189752380Y-89323809D01*
X189895238Y-89419047D01*
X189990476Y-89514285D01*
X190038095Y-89609523D01*
X184633333Y-88457142D02*
X184585714Y-88504761D01*
X184442857Y-88552380D01*
X184347619Y-88552380D01*
X184204761Y-88504761D01*
X184109523Y-88409523D01*
X184061904Y-88314285D01*
X184014285Y-88123809D01*
X184014285Y-87980952D01*
X184061904Y-87790476D01*
X184109523Y-87695238D01*
X184204761Y-87600000D01*
X184347619Y-87552380D01*
X184442857Y-87552380D01*
X184585714Y-87600000D01*
X184633333Y-87647619D01*
X185014285Y-87647619D02*
X185061904Y-87600000D01*
X185157142Y-87552380D01*
X185395238Y-87552380D01*
X185490476Y-87600000D01*
X185538095Y-87647619D01*
X185585714Y-87742857D01*
X185585714Y-87838095D01*
X185538095Y-87980952D01*
X184966666Y-88552380D01*
X185585714Y-88552380D01*
X193057142Y-102857142D02*
X193009523Y-102904761D01*
X192866666Y-102952380D01*
X192771428Y-102952380D01*
X192628571Y-102904761D01*
X192533333Y-102809523D01*
X192485714Y-102714285D01*
X192438095Y-102523809D01*
X192438095Y-102380952D01*
X192485714Y-102190476D01*
X192533333Y-102095238D01*
X192628571Y-102000000D01*
X192771428Y-101952380D01*
X192866666Y-101952380D01*
X193009523Y-102000000D01*
X193057142Y-102047619D01*
X194009523Y-102952380D02*
X193438095Y-102952380D01*
X193723809Y-102952380D02*
X193723809Y-101952380D01*
X193628571Y-102095238D01*
X193533333Y-102190476D01*
X193438095Y-102238095D01*
X194628571Y-101952380D02*
X194723809Y-101952380D01*
X194819047Y-102000000D01*
X194866666Y-102047619D01*
X194914285Y-102142857D01*
X194961904Y-102333333D01*
X194961904Y-102571428D01*
X194914285Y-102761904D01*
X194866666Y-102857142D01*
X194819047Y-102904761D01*
X194723809Y-102952380D01*
X194628571Y-102952380D01*
X194533333Y-102904761D01*
X194485714Y-102857142D01*
X194438095Y-102761904D01*
X194390476Y-102571428D01*
X194390476Y-102333333D01*
X194438095Y-102142857D01*
X194485714Y-102047619D01*
X194533333Y-102000000D01*
X194628571Y-101952380D01*
X179233333Y-79757142D02*
X179185714Y-79804761D01*
X179042857Y-79852380D01*
X178947619Y-79852380D01*
X178804761Y-79804761D01*
X178709523Y-79709523D01*
X178661904Y-79614285D01*
X178614285Y-79423809D01*
X178614285Y-79280952D01*
X178661904Y-79090476D01*
X178709523Y-78995238D01*
X178804761Y-78900000D01*
X178947619Y-78852380D01*
X179042857Y-78852380D01*
X179185714Y-78900000D01*
X179233333Y-78947619D01*
X180185714Y-79852380D02*
X179614285Y-79852380D01*
X179900000Y-79852380D02*
X179900000Y-78852380D01*
X179804761Y-78995238D01*
X179709523Y-79090476D01*
X179614285Y-79138095D01*
X197257142Y-100942857D02*
X197304761Y-100990476D01*
X197352380Y-101133333D01*
X197352380Y-101228571D01*
X197304761Y-101371428D01*
X197209523Y-101466666D01*
X197114285Y-101514285D01*
X196923809Y-101561904D01*
X196780952Y-101561904D01*
X196590476Y-101514285D01*
X196495238Y-101466666D01*
X196400000Y-101371428D01*
X196352380Y-101228571D01*
X196352380Y-101133333D01*
X196400000Y-100990476D01*
X196447619Y-100942857D01*
X197352380Y-99990476D02*
X197352380Y-100561904D01*
X197352380Y-100276190D02*
X196352380Y-100276190D01*
X196495238Y-100371428D01*
X196590476Y-100466666D01*
X196638095Y-100561904D01*
X196447619Y-99609523D02*
X196400000Y-99561904D01*
X196352380Y-99466666D01*
X196352380Y-99228571D01*
X196400000Y-99133333D01*
X196447619Y-99085714D01*
X196542857Y-99038095D01*
X196638095Y-99038095D01*
X196780952Y-99085714D01*
X197352380Y-99657142D01*
X197352380Y-99038095D01*
X179733333Y-97257142D02*
X179685714Y-97304761D01*
X179542857Y-97352380D01*
X179447619Y-97352380D01*
X179304761Y-97304761D01*
X179209523Y-97209523D01*
X179161904Y-97114285D01*
X179114285Y-96923809D01*
X179114285Y-96780952D01*
X179161904Y-96590476D01*
X179209523Y-96495238D01*
X179304761Y-96400000D01*
X179447619Y-96352380D01*
X179542857Y-96352380D01*
X179685714Y-96400000D01*
X179733333Y-96447619D01*
X180066666Y-96352380D02*
X180685714Y-96352380D01*
X180352380Y-96733333D01*
X180495238Y-96733333D01*
X180590476Y-96780952D01*
X180638095Y-96828571D01*
X180685714Y-96923809D01*
X180685714Y-97161904D01*
X180638095Y-97257142D01*
X180590476Y-97304761D01*
X180495238Y-97352380D01*
X180209523Y-97352380D01*
X180114285Y-97304761D01*
X180066666Y-97257142D01*
X188657142Y-91266666D02*
X188704761Y-91314285D01*
X188752380Y-91457142D01*
X188752380Y-91552380D01*
X188704761Y-91695238D01*
X188609523Y-91790476D01*
X188514285Y-91838095D01*
X188323809Y-91885714D01*
X188180952Y-91885714D01*
X187990476Y-91838095D01*
X187895238Y-91790476D01*
X187800000Y-91695238D01*
X187752380Y-91552380D01*
X187752380Y-91457142D01*
X187800000Y-91314285D01*
X187847619Y-91266666D01*
X188180952Y-90695238D02*
X188133333Y-90790476D01*
X188085714Y-90838095D01*
X187990476Y-90885714D01*
X187942857Y-90885714D01*
X187847619Y-90838095D01*
X187800000Y-90790476D01*
X187752380Y-90695238D01*
X187752380Y-90504761D01*
X187800000Y-90409523D01*
X187847619Y-90361904D01*
X187942857Y-90314285D01*
X187990476Y-90314285D01*
X188085714Y-90361904D01*
X188133333Y-90409523D01*
X188180952Y-90504761D01*
X188180952Y-90695238D01*
X188228571Y-90790476D01*
X188276190Y-90838095D01*
X188371428Y-90885714D01*
X188561904Y-90885714D01*
X188657142Y-90838095D01*
X188704761Y-90790476D01*
X188752380Y-90695238D01*
X188752380Y-90504761D01*
X188704761Y-90409523D01*
X188657142Y-90361904D01*
X188561904Y-90314285D01*
X188371428Y-90314285D01*
X188276190Y-90361904D01*
X188228571Y-90409523D01*
X188180952Y-90504761D01*
X186733333Y-87357142D02*
X186685714Y-87404761D01*
X186542857Y-87452380D01*
X186447619Y-87452380D01*
X186304761Y-87404761D01*
X186209523Y-87309523D01*
X186161904Y-87214285D01*
X186114285Y-87023809D01*
X186114285Y-86880952D01*
X186161904Y-86690476D01*
X186209523Y-86595238D01*
X186304761Y-86500000D01*
X186447619Y-86452380D01*
X186542857Y-86452380D01*
X186685714Y-86500000D01*
X186733333Y-86547619D01*
X187638095Y-86452380D02*
X187161904Y-86452380D01*
X187114285Y-86928571D01*
X187161904Y-86880952D01*
X187257142Y-86833333D01*
X187495238Y-86833333D01*
X187590476Y-86880952D01*
X187638095Y-86928571D01*
X187685714Y-87023809D01*
X187685714Y-87261904D01*
X187638095Y-87357142D01*
X187590476Y-87404761D01*
X187495238Y-87452380D01*
X187257142Y-87452380D01*
X187161904Y-87404761D01*
X187114285Y-87357142D01*
X206452380Y-91742857D02*
X205976190Y-92076190D01*
X206452380Y-92314285D02*
X205452380Y-92314285D01*
X205452380Y-91933333D01*
X205500000Y-91838095D01*
X205547619Y-91790476D01*
X205642857Y-91742857D01*
X205785714Y-91742857D01*
X205880952Y-91790476D01*
X205928571Y-91838095D01*
X205976190Y-91933333D01*
X205976190Y-92314285D01*
X206452380Y-90790476D02*
X206452380Y-91361904D01*
X206452380Y-91076190D02*
X205452380Y-91076190D01*
X205595238Y-91171428D01*
X205690476Y-91266666D01*
X205738095Y-91361904D01*
X205452380Y-90457142D02*
X205452380Y-89838095D01*
X205833333Y-90171428D01*
X205833333Y-90028571D01*
X205880952Y-89933333D01*
X205928571Y-89885714D01*
X206023809Y-89838095D01*
X206261904Y-89838095D01*
X206357142Y-89885714D01*
X206404761Y-89933333D01*
X206452380Y-90028571D01*
X206452380Y-90314285D01*
X206404761Y-90409523D01*
X206357142Y-90457142D01*
X184257142Y-102766666D02*
X184304761Y-102814285D01*
X184352380Y-102957142D01*
X184352380Y-103052380D01*
X184304761Y-103195238D01*
X184209523Y-103290476D01*
X184114285Y-103338095D01*
X183923809Y-103385714D01*
X183780952Y-103385714D01*
X183590476Y-103338095D01*
X183495238Y-103290476D01*
X183400000Y-103195238D01*
X183352380Y-103052380D01*
X183352380Y-102957142D01*
X183400000Y-102814285D01*
X183447619Y-102766666D01*
X183352380Y-101909523D02*
X183352380Y-102100000D01*
X183400000Y-102195238D01*
X183447619Y-102242857D01*
X183590476Y-102338095D01*
X183780952Y-102385714D01*
X184161904Y-102385714D01*
X184257142Y-102338095D01*
X184304761Y-102290476D01*
X184352380Y-102195238D01*
X184352380Y-102004761D01*
X184304761Y-101909523D01*
X184257142Y-101861904D01*
X184161904Y-101814285D01*
X183923809Y-101814285D01*
X183828571Y-101861904D01*
X183780952Y-101909523D01*
X183733333Y-102004761D01*
X183733333Y-102195238D01*
X183780952Y-102290476D01*
X183828571Y-102338095D01*
X183923809Y-102385714D01*
X185338095Y-101152380D02*
X185338095Y-101961904D01*
X185385714Y-102057142D01*
X185433333Y-102104761D01*
X185528571Y-102152380D01*
X185719047Y-102152380D01*
X185814285Y-102104761D01*
X185861904Y-102057142D01*
X185909523Y-101961904D01*
X185909523Y-101152380D01*
X186909523Y-102152380D02*
X186338095Y-102152380D01*
X186623809Y-102152380D02*
X186623809Y-101152380D01*
X186528571Y-101295238D01*
X186433333Y-101390476D01*
X186338095Y-101438095D01*
X181165000Y-96071380D02*
X181165000Y-96309476D01*
X180926904Y-96214238D02*
X181165000Y-96309476D01*
X181403095Y-96214238D01*
X181022142Y-96499952D02*
X181165000Y-96309476D01*
X181307857Y-96499952D01*
X181165000Y-96071380D02*
X181165000Y-96309476D01*
X180926904Y-96214238D02*
X181165000Y-96309476D01*
X181403095Y-96214238D01*
X181022142Y-96499952D02*
X181165000Y-96309476D01*
X181307857Y-96499952D01*
X178933333Y-81152380D02*
X178600000Y-80676190D01*
X178361904Y-81152380D02*
X178361904Y-80152380D01*
X178742857Y-80152380D01*
X178838095Y-80200000D01*
X178885714Y-80247619D01*
X178933333Y-80342857D01*
X178933333Y-80485714D01*
X178885714Y-80580952D01*
X178838095Y-80628571D01*
X178742857Y-80676190D01*
X178361904Y-80676190D01*
X179266666Y-80152380D02*
X179885714Y-80152380D01*
X179552380Y-80533333D01*
X179695238Y-80533333D01*
X179790476Y-80580952D01*
X179838095Y-80628571D01*
X179885714Y-80723809D01*
X179885714Y-80961904D01*
X179838095Y-81057142D01*
X179790476Y-81104761D01*
X179695238Y-81152380D01*
X179409523Y-81152380D01*
X179314285Y-81104761D01*
X179266666Y-81057142D01*
X182804761Y-81647619D02*
X182709523Y-81600000D01*
X182614285Y-81504761D01*
X182471428Y-81361904D01*
X182376190Y-81314285D01*
X182280952Y-81314285D01*
X182328571Y-81552380D02*
X182233333Y-81504761D01*
X182138095Y-81409523D01*
X182090476Y-81219047D01*
X182090476Y-80885714D01*
X182138095Y-80695238D01*
X182233333Y-80600000D01*
X182328571Y-80552380D01*
X182519047Y-80552380D01*
X182614285Y-80600000D01*
X182709523Y-80695238D01*
X182757142Y-80885714D01*
X182757142Y-81219047D01*
X182709523Y-81409523D01*
X182614285Y-81504761D01*
X182519047Y-81552380D01*
X182328571Y-81552380D01*
X183138095Y-80647619D02*
X183185714Y-80600000D01*
X183280952Y-80552380D01*
X183519047Y-80552380D01*
X183614285Y-80600000D01*
X183661904Y-80647619D01*
X183709523Y-80742857D01*
X183709523Y-80838095D01*
X183661904Y-80980952D01*
X183090476Y-81552380D01*
X183709523Y-81552380D01*
X181600000Y-81552380D02*
X181600000Y-81790476D01*
X181361904Y-81695238D02*
X181600000Y-81790476D01*
X181838095Y-81695238D01*
X181457142Y-81980952D02*
X181600000Y-81790476D01*
X181742857Y-81980952D01*
X191052380Y-90361904D02*
X191861904Y-90361904D01*
X191957142Y-90314285D01*
X192004761Y-90266666D01*
X192052380Y-90171428D01*
X192052380Y-89980952D01*
X192004761Y-89885714D01*
X191957142Y-89838095D01*
X191861904Y-89790476D01*
X191052380Y-89790476D01*
X191052380Y-89409523D02*
X191052380Y-88790476D01*
X191433333Y-89123809D01*
X191433333Y-88980952D01*
X191480952Y-88885714D01*
X191528571Y-88838095D01*
X191623809Y-88790476D01*
X191861904Y-88790476D01*
X191957142Y-88838095D01*
X192004761Y-88885714D01*
X192052380Y-88980952D01*
X192052380Y-89266666D01*
X192004761Y-89361904D01*
X191957142Y-89409523D01*
X192052380Y-91700000D02*
X192290476Y-91700000D01*
X192195238Y-91938095D02*
X192290476Y-91700000D01*
X192195238Y-91461904D01*
X192480952Y-91842857D02*
X192290476Y-91700000D01*
X192480952Y-91557142D01*
X186733333Y-82952380D02*
X186400000Y-82476190D01*
X186161904Y-82952380D02*
X186161904Y-81952380D01*
X186542857Y-81952380D01*
X186638095Y-82000000D01*
X186685714Y-82047619D01*
X186733333Y-82142857D01*
X186733333Y-82285714D01*
X186685714Y-82380952D01*
X186638095Y-82428571D01*
X186542857Y-82476190D01*
X186161904Y-82476190D01*
X187590476Y-81952380D02*
X187400000Y-81952380D01*
X187304761Y-82000000D01*
X187257142Y-82047619D01*
X187161904Y-82190476D01*
X187114285Y-82380952D01*
X187114285Y-82761904D01*
X187161904Y-82857142D01*
X187209523Y-82904761D01*
X187304761Y-82952380D01*
X187495238Y-82952380D01*
X187590476Y-82904761D01*
X187638095Y-82857142D01*
X187685714Y-82761904D01*
X187685714Y-82523809D01*
X187638095Y-82428571D01*
X187590476Y-82380952D01*
X187495238Y-82333333D01*
X187304761Y-82333333D01*
X187209523Y-82380952D01*
X187161904Y-82428571D01*
X187114285Y-82523809D01*
X191052380Y-86061904D02*
X191861904Y-86061904D01*
X191957142Y-86014285D01*
X192004761Y-85966666D01*
X192052380Y-85871428D01*
X192052380Y-85680952D01*
X192004761Y-85585714D01*
X191957142Y-85538095D01*
X191861904Y-85490476D01*
X191052380Y-85490476D01*
X191147619Y-85061904D02*
X191100000Y-85014285D01*
X191052380Y-84919047D01*
X191052380Y-84680952D01*
X191100000Y-84585714D01*
X191147619Y-84538095D01*
X191242857Y-84490476D01*
X191338095Y-84490476D01*
X191480952Y-84538095D01*
X192052380Y-85109523D01*
X192052380Y-84490476D01*
X192052380Y-87300000D02*
X192290476Y-87300000D01*
X192195238Y-87538095D02*
X192290476Y-87300000D01*
X192195238Y-87061904D01*
X192480952Y-87442857D02*
X192290476Y-87300000D01*
X192480952Y-87157142D01*
X210852380Y-107285714D02*
X210852380Y-106714285D01*
X211852380Y-107000000D02*
X210852380Y-107000000D01*
X211852380Y-106380952D02*
X210852380Y-106380952D01*
X211328571Y-106380952D02*
X211328571Y-105809523D01*
X211852380Y-105809523D02*
X210852380Y-105809523D01*
X211852380Y-104809523D02*
X211852380Y-105380952D01*
X211852380Y-105095238D02*
X210852380Y-105095238D01*
X210995238Y-105190476D01*
X211090476Y-105285714D01*
X211138095Y-105380952D01*
X199766666Y-84761904D02*
X199385714Y-84761904D01*
X199385714Y-83961904D01*
X200452380Y-84761904D02*
X199995238Y-84761904D01*
X200223809Y-84761904D02*
X200223809Y-83961904D01*
X200147619Y-84076190D01*
X200071428Y-84152380D01*
X199995238Y-84190476D01*
X179404761Y-86747619D02*
X179309523Y-86700000D01*
X179214285Y-86604761D01*
X179071428Y-86461904D01*
X178976190Y-86414285D01*
X178880952Y-86414285D01*
X178928571Y-86652380D02*
X178833333Y-86604761D01*
X178738095Y-86509523D01*
X178690476Y-86319047D01*
X178690476Y-85985714D01*
X178738095Y-85795238D01*
X178833333Y-85700000D01*
X178928571Y-85652380D01*
X179119047Y-85652380D01*
X179214285Y-85700000D01*
X179309523Y-85795238D01*
X179357142Y-85985714D01*
X179357142Y-86319047D01*
X179309523Y-86509523D01*
X179214285Y-86604761D01*
X179119047Y-86652380D01*
X178928571Y-86652380D01*
X180309523Y-86652380D02*
X179738095Y-86652380D01*
X180023809Y-86652380D02*
X180023809Y-85652380D01*
X179928571Y-85795238D01*
X179833333Y-85890476D01*
X179738095Y-85938095D01*
X180800000Y-85252380D02*
X180800000Y-85490476D01*
X180561904Y-85395238D02*
X180800000Y-85490476D01*
X181038095Y-85395238D01*
X180657142Y-85680952D02*
X180800000Y-85490476D01*
X180942857Y-85680952D01*
X207847619Y-91895238D02*
X207800000Y-91990476D01*
X207704761Y-92085714D01*
X207561904Y-92228571D01*
X207514285Y-92323809D01*
X207514285Y-92419047D01*
X207752380Y-92371428D02*
X207704761Y-92466666D01*
X207609523Y-92561904D01*
X207419047Y-92609523D01*
X207085714Y-92609523D01*
X206895238Y-92561904D01*
X206800000Y-92466666D01*
X206752380Y-92371428D01*
X206752380Y-92180952D01*
X206800000Y-92085714D01*
X206895238Y-91990476D01*
X207085714Y-91942857D01*
X207419047Y-91942857D01*
X207609523Y-91990476D01*
X207704761Y-92085714D01*
X207752380Y-92180952D01*
X207752380Y-92371428D01*
X206752380Y-91609523D02*
X206752380Y-90990476D01*
X207133333Y-91323809D01*
X207133333Y-91180952D01*
X207180952Y-91085714D01*
X207228571Y-91038095D01*
X207323809Y-90990476D01*
X207561904Y-90990476D01*
X207657142Y-91038095D01*
X207704761Y-91085714D01*
X207752380Y-91180952D01*
X207752380Y-91466666D01*
X207704761Y-91561904D01*
X207657142Y-91609523D01*
X210602380Y-89550000D02*
X210840476Y-89550000D01*
X210745238Y-89788095D02*
X210840476Y-89550000D01*
X210745238Y-89311904D01*
X211030952Y-89692857D02*
X210840476Y-89550000D01*
X211030952Y-89407142D01*
X183857142Y-104766666D02*
X183904761Y-104814285D01*
X183952380Y-104957142D01*
X183952380Y-105052380D01*
X183904761Y-105195238D01*
X183809523Y-105290476D01*
X183714285Y-105338095D01*
X183523809Y-105385714D01*
X183380952Y-105385714D01*
X183190476Y-105338095D01*
X183095238Y-105290476D01*
X183000000Y-105195238D01*
X182952380Y-105052380D01*
X182952380Y-104957142D01*
X183000000Y-104814285D01*
X183047619Y-104766666D01*
X183285714Y-103909523D02*
X183952380Y-103909523D01*
X182904761Y-104147619D02*
X183619047Y-104385714D01*
X183619047Y-103766666D01*
M02*
