G04 #@! TF.GenerationSoftware,KiCad,Pcbnew,(5.1.10)-1*
G04 #@! TF.CreationDate,2021-11-27T12:03:37+09:00*
G04 #@! TF.ProjectId,LiPoCharger_BQ24610_5S,4c69506f-4368-4617-9267-65725f425132,rev?*
G04 #@! TF.SameCoordinates,Original*
G04 #@! TF.FileFunction,Copper,L2,Bot*
G04 #@! TF.FilePolarity,Positive*
%FSLAX46Y46*%
G04 Gerber Fmt 4.6, Leading zero omitted, Abs format (unit mm)*
G04 Created by KiCad (PCBNEW (5.1.10)-1) date 2021-11-27 12:03:37*
%MOMM*%
%LPD*%
G01*
G04 APERTURE LIST*
G04 #@! TA.AperFunction,ComponentPad*
%ADD10R,1.700000X1.700000*%
G04 #@! TD*
G04 #@! TA.AperFunction,ComponentPad*
%ADD11O,1.700000X1.700000*%
G04 #@! TD*
G04 #@! TA.AperFunction,ComponentPad*
%ADD12C,0.508000*%
G04 #@! TD*
G04 #@! TA.AperFunction,ViaPad*
%ADD13C,0.600000*%
G04 #@! TD*
G04 #@! TA.AperFunction,ViaPad*
%ADD14C,0.900000*%
G04 #@! TD*
G04 #@! TA.AperFunction,Conductor*
%ADD15C,0.200000*%
G04 #@! TD*
G04 #@! TA.AperFunction,Conductor*
%ADD16C,0.100000*%
G04 #@! TD*
G04 #@! TA.AperFunction,Conductor*
%ADD17C,0.152400*%
G04 #@! TD*
G04 #@! TA.AperFunction,Conductor*
%ADD18C,0.400000*%
G04 #@! TD*
G04 APERTURE END LIST*
D10*
X174100000Y-100620000D03*
D11*
X174100000Y-98080000D03*
X174100000Y-95540000D03*
X174100000Y-93000000D03*
D10*
X209660000Y-95540000D03*
D11*
X209660000Y-98080000D03*
D12*
X183412600Y-99287400D03*
X183412600Y-98500000D03*
X183412600Y-97712600D03*
X184200000Y-99287400D03*
X184200000Y-98500000D03*
X184200000Y-97712600D03*
X184987400Y-99287400D03*
X184987400Y-98500000D03*
X184987400Y-97712600D03*
D11*
X174100000Y-87920000D03*
X174100000Y-85380000D03*
X174100000Y-82840000D03*
D10*
X174100000Y-80300000D03*
D11*
X209660000Y-87920000D03*
X209660000Y-85380000D03*
X209660000Y-82840000D03*
D10*
X209660000Y-80300000D03*
D13*
X193300000Y-92600000D03*
X179000000Y-101200000D03*
X192700000Y-95400000D03*
X187100000Y-97700000D03*
X181000000Y-93200000D03*
X200400000Y-107300000D03*
X192700000Y-102500000D03*
X194500000Y-92600000D03*
X192400000Y-100800000D03*
X193900000Y-92600000D03*
X192500000Y-103900000D03*
D14*
X195600000Y-79300000D03*
X201100000Y-96100000D03*
D13*
X181800000Y-103400000D03*
X192300000Y-98100000D03*
D14*
X191000000Y-79300000D03*
D13*
X184400000Y-106300000D03*
X177000000Y-96000000D03*
D14*
X201100000Y-94200000D03*
D13*
X211200000Y-107300000D03*
X184900000Y-86500000D03*
X181900000Y-89200000D03*
X194900000Y-105900000D03*
X192500000Y-100000000D03*
X184700000Y-103000000D03*
X192831727Y-93868273D03*
X180200000Y-97000000D03*
X191700000Y-89300000D03*
X189200000Y-92400000D03*
X188300000Y-97250000D03*
X186300000Y-95600010D03*
X191600000Y-91400000D03*
X199500000Y-94500000D03*
X183500000Y-107700000D03*
X180700000Y-101200000D03*
X187000000Y-95000000D03*
X182500000Y-94000000D03*
X176800000Y-102200000D03*
X179700000Y-106500000D03*
X177600000Y-101700000D03*
D15*
X184600000Y-86500000D02*
X184900000Y-86500000D01*
X181900000Y-89200000D02*
X184600000Y-86500000D01*
X194900000Y-105400000D02*
X194900000Y-102400000D01*
X186900000Y-103000000D02*
X189900000Y-100000000D01*
X192500000Y-100000000D02*
X194800000Y-102300000D01*
X194900000Y-102400000D02*
X194800000Y-102300000D01*
X184700000Y-103000000D02*
X186900000Y-103000000D01*
X194900000Y-105600000D02*
X194900000Y-105900000D01*
X194900000Y-105600000D02*
X194900000Y-105700000D01*
X194900000Y-105400000D02*
X194900000Y-105600000D01*
X189900000Y-100000000D02*
X192500000Y-100000000D01*
X180200000Y-95411998D02*
X182211999Y-93399999D01*
X182211999Y-93399999D02*
X192363453Y-93399999D01*
X180200000Y-97000000D02*
X180200000Y-95411998D01*
X192363453Y-93399999D02*
X192831727Y-93868273D01*
X189200000Y-91800000D02*
X191700000Y-89300000D01*
X189200000Y-92400000D02*
X189200000Y-91800000D01*
X186650010Y-95600010D02*
X186300000Y-95600010D01*
X188300000Y-97250000D02*
X186650010Y-95600010D01*
X191600000Y-91788002D02*
X191600000Y-91400000D01*
X194311998Y-94500000D02*
X191600000Y-91788002D01*
X199500000Y-94500000D02*
X194311998Y-94500000D01*
X180800002Y-101300002D02*
X180700000Y-101200000D01*
X180700000Y-104900000D02*
X180700000Y-101200000D01*
X183500000Y-107700000D02*
X180700000Y-104900000D01*
X183500000Y-95000000D02*
X187000000Y-95000000D01*
X182500000Y-94000000D02*
X183500000Y-95000000D01*
X175250001Y-99230001D02*
X174100000Y-98080000D01*
X176800000Y-102200000D02*
X175250001Y-100650001D01*
X175250001Y-100650001D02*
X175250001Y-99230001D01*
X172949999Y-96690001D02*
X174100000Y-95540000D01*
X179700000Y-106500000D02*
X177739998Y-106500000D01*
X177739998Y-106500000D02*
X172949999Y-101710001D01*
X172949999Y-101710001D02*
X172949999Y-96690001D01*
X175650012Y-94550012D02*
X174100000Y-93000000D01*
X175650012Y-99750012D02*
X175650012Y-94550012D01*
X177600000Y-101700000D02*
X175650012Y-99750012D01*
D16*
X185732443Y-96967557D02*
X185750000Y-97009945D01*
X185750000Y-99990055D01*
X185732443Y-100032443D01*
X185690055Y-100050000D01*
X182709945Y-100050000D01*
X182667557Y-100032443D01*
X182650000Y-99990055D01*
X182650000Y-97009945D01*
X182667557Y-96967557D01*
X182709945Y-96950000D01*
X185690055Y-96950000D01*
X185732443Y-96967557D01*
G04 #@! TA.AperFunction,Conductor*
D17*
G36*
X185732443Y-96967557D02*
G01*
X185750000Y-97009945D01*
X185750000Y-99990055D01*
X185732443Y-100032443D01*
X185690055Y-100050000D01*
X182709945Y-100050000D01*
X182667557Y-100032443D01*
X182650000Y-99990055D01*
X182650000Y-97009945D01*
X182667557Y-96967557D01*
X182709945Y-96950000D01*
X185690055Y-96950000D01*
X185732443Y-96967557D01*
G37*
G04 #@! TD.AperFunction*
D18*
X210708406Y-78847472D02*
X210908873Y-78907997D01*
X211093769Y-79006309D01*
X211256046Y-79138658D01*
X211389526Y-79300008D01*
X211489125Y-79484211D01*
X211551047Y-79684249D01*
X211575001Y-79912164D01*
X211575000Y-106879211D01*
X211552528Y-107108406D01*
X211492003Y-107308873D01*
X211393691Y-107493769D01*
X211261342Y-107656046D01*
X211099992Y-107789526D01*
X210915789Y-107889125D01*
X210715751Y-107951047D01*
X210487855Y-107974999D01*
X184144748Y-107972628D01*
X184173099Y-107904182D01*
X184200000Y-107768944D01*
X184200000Y-107631056D01*
X184173099Y-107495818D01*
X184120332Y-107368426D01*
X184043726Y-107253776D01*
X183946224Y-107156274D01*
X183831574Y-107079668D01*
X183704182Y-107026901D01*
X183568944Y-107000000D01*
X183507106Y-107000000D01*
X181200000Y-104692895D01*
X181200000Y-102931056D01*
X184000000Y-102931056D01*
X184000000Y-103068944D01*
X184026901Y-103204182D01*
X184079668Y-103331574D01*
X184156274Y-103446224D01*
X184253776Y-103543726D01*
X184368426Y-103620332D01*
X184495818Y-103673099D01*
X184631056Y-103700000D01*
X184768944Y-103700000D01*
X184904182Y-103673099D01*
X185031574Y-103620332D01*
X185146224Y-103543726D01*
X185189950Y-103500000D01*
X186875440Y-103500000D01*
X186900000Y-103502419D01*
X186924560Y-103500000D01*
X186998017Y-103492765D01*
X187092267Y-103464175D01*
X187179129Y-103417746D01*
X187255264Y-103355264D01*
X187270929Y-103336176D01*
X190107107Y-100500000D01*
X192010050Y-100500000D01*
X192053776Y-100543726D01*
X192168426Y-100620332D01*
X192295818Y-100673099D01*
X192431056Y-100700000D01*
X192492895Y-100700000D01*
X194400001Y-102607107D01*
X194400000Y-105375440D01*
X194400000Y-105410050D01*
X194356274Y-105453776D01*
X194279668Y-105568426D01*
X194226901Y-105695818D01*
X194200000Y-105831056D01*
X194200000Y-105968944D01*
X194226901Y-106104182D01*
X194279668Y-106231574D01*
X194356274Y-106346224D01*
X194453776Y-106443726D01*
X194568426Y-106520332D01*
X194695818Y-106573099D01*
X194831056Y-106600000D01*
X194968944Y-106600000D01*
X195104182Y-106573099D01*
X195231574Y-106520332D01*
X195346224Y-106443726D01*
X195443726Y-106346224D01*
X195520332Y-106231574D01*
X195573099Y-106104182D01*
X195600000Y-105968944D01*
X195600000Y-105831056D01*
X195573099Y-105695818D01*
X195520332Y-105568426D01*
X195443726Y-105453776D01*
X195400000Y-105410050D01*
X195400000Y-102424549D01*
X195402418Y-102399999D01*
X195400000Y-102375449D01*
X195400000Y-102375440D01*
X195392765Y-102301983D01*
X195364175Y-102207733D01*
X195317746Y-102120871D01*
X195255264Y-102044736D01*
X195236180Y-102029074D01*
X195170922Y-101963817D01*
X195170919Y-101963813D01*
X193200000Y-99992895D01*
X193200000Y-99931056D01*
X193173099Y-99795818D01*
X193120332Y-99668426D01*
X193043726Y-99553776D01*
X192946224Y-99456274D01*
X192831574Y-99379668D01*
X192704182Y-99326901D01*
X192568944Y-99300000D01*
X192431056Y-99300000D01*
X192295818Y-99326901D01*
X192168426Y-99379668D01*
X192053776Y-99456274D01*
X192010050Y-99500000D01*
X189924560Y-99500000D01*
X189900000Y-99497581D01*
X189875440Y-99500000D01*
X189801983Y-99507235D01*
X189707733Y-99535825D01*
X189620871Y-99582254D01*
X189544736Y-99644736D01*
X189529080Y-99663813D01*
X186692895Y-102500000D01*
X185189950Y-102500000D01*
X185146224Y-102456274D01*
X185031574Y-102379668D01*
X184904182Y-102326901D01*
X184768944Y-102300000D01*
X184631056Y-102300000D01*
X184495818Y-102326901D01*
X184368426Y-102379668D01*
X184253776Y-102456274D01*
X184156274Y-102553776D01*
X184079668Y-102668426D01*
X184026901Y-102795818D01*
X184000000Y-102931056D01*
X181200000Y-102931056D01*
X181200000Y-101689950D01*
X181243726Y-101646224D01*
X181320332Y-101531574D01*
X181373099Y-101404182D01*
X181400000Y-101268944D01*
X181400000Y-101131056D01*
X181373099Y-100995818D01*
X181320332Y-100868426D01*
X181243726Y-100753776D01*
X181146224Y-100656274D01*
X181031574Y-100579668D01*
X180904182Y-100526901D01*
X180768944Y-100500000D01*
X180631056Y-100500000D01*
X180495818Y-100526901D01*
X180368426Y-100579668D01*
X180253776Y-100656274D01*
X180156274Y-100753776D01*
X180079668Y-100868426D01*
X180026901Y-100995818D01*
X180000000Y-101131056D01*
X180000000Y-101268944D01*
X180026901Y-101404182D01*
X180079668Y-101531574D01*
X180156274Y-101646224D01*
X180200001Y-101689951D01*
X180200000Y-104875440D01*
X180197581Y-104900000D01*
X180207235Y-104998016D01*
X180235825Y-105092266D01*
X180282254Y-105179129D01*
X180344736Y-105255264D01*
X180363824Y-105270929D01*
X182800000Y-107707106D01*
X182800000Y-107768944D01*
X182826901Y-107904182D01*
X182855204Y-107972512D01*
X173606463Y-107971679D01*
X173362068Y-107964060D01*
X173158018Y-107917004D01*
X172966994Y-107831210D01*
X172796274Y-107709949D01*
X172652356Y-107557836D01*
X172540724Y-107380664D01*
X172465632Y-107185185D01*
X172427716Y-106965997D01*
X172425000Y-106892177D01*
X172425000Y-96690001D01*
X172447580Y-96690001D01*
X172450000Y-96714571D01*
X172449999Y-101685441D01*
X172447580Y-101710001D01*
X172457234Y-101808018D01*
X172465670Y-101835826D01*
X172485824Y-101902267D01*
X172532253Y-101989130D01*
X172594735Y-102065265D01*
X172613823Y-102080930D01*
X177369078Y-106836187D01*
X177384734Y-106855264D01*
X177460869Y-106917746D01*
X177547731Y-106964175D01*
X177641981Y-106992765D01*
X177739998Y-107002419D01*
X177764558Y-107000000D01*
X179210050Y-107000000D01*
X179253776Y-107043726D01*
X179368426Y-107120332D01*
X179495818Y-107173099D01*
X179631056Y-107200000D01*
X179768944Y-107200000D01*
X179904182Y-107173099D01*
X180031574Y-107120332D01*
X180146224Y-107043726D01*
X180243726Y-106946224D01*
X180320332Y-106831574D01*
X180373099Y-106704182D01*
X180400000Y-106568944D01*
X180400000Y-106431056D01*
X180373099Y-106295818D01*
X180320332Y-106168426D01*
X180243726Y-106053776D01*
X180146224Y-105956274D01*
X180031574Y-105879668D01*
X179904182Y-105826901D01*
X179768944Y-105800000D01*
X179631056Y-105800000D01*
X179495818Y-105826901D01*
X179368426Y-105879668D01*
X179253776Y-105956274D01*
X179210050Y-106000000D01*
X177947105Y-106000000D01*
X173933552Y-101986448D01*
X174000000Y-101920000D01*
X174000000Y-100720000D01*
X173980000Y-100720000D01*
X173980000Y-100520000D01*
X174000000Y-100520000D01*
X174000000Y-100500000D01*
X174200000Y-100500000D01*
X174200000Y-100520000D01*
X174220000Y-100520000D01*
X174220000Y-100720000D01*
X174200000Y-100720000D01*
X174200000Y-101920000D01*
X174350000Y-102070000D01*
X174950000Y-102072903D01*
X175067621Y-102061318D01*
X175180721Y-102027010D01*
X175284955Y-101971296D01*
X175376317Y-101896317D01*
X175451296Y-101804955D01*
X175507010Y-101700721D01*
X175527167Y-101634272D01*
X176100000Y-102207107D01*
X176100000Y-102268944D01*
X176126901Y-102404182D01*
X176179668Y-102531574D01*
X176256274Y-102646224D01*
X176353776Y-102743726D01*
X176468426Y-102820332D01*
X176595818Y-102873099D01*
X176731056Y-102900000D01*
X176868944Y-102900000D01*
X177004182Y-102873099D01*
X177131574Y-102820332D01*
X177246224Y-102743726D01*
X177343726Y-102646224D01*
X177420332Y-102531574D01*
X177473099Y-102404182D01*
X177476105Y-102389069D01*
X177531056Y-102400000D01*
X177668944Y-102400000D01*
X177804182Y-102373099D01*
X177931574Y-102320332D01*
X178046224Y-102243726D01*
X178143726Y-102146224D01*
X178220332Y-102031574D01*
X178273099Y-101904182D01*
X178300000Y-101768944D01*
X178300000Y-101631056D01*
X178273099Y-101495818D01*
X178220332Y-101368426D01*
X178143726Y-101253776D01*
X178046224Y-101156274D01*
X177931574Y-101079668D01*
X177804182Y-101026901D01*
X177668944Y-101000000D01*
X177607107Y-101000000D01*
X176150012Y-99542907D01*
X176150012Y-97732935D01*
X182554710Y-97732935D01*
X182575161Y-97899910D01*
X182627795Y-98059688D01*
X182653732Y-98108212D01*
X182612231Y-98190487D01*
X182567227Y-98352578D01*
X182554710Y-98520335D01*
X182575161Y-98687310D01*
X182627795Y-98847088D01*
X182653732Y-98895612D01*
X182612231Y-98977887D01*
X182567227Y-99139978D01*
X182554710Y-99307735D01*
X182575161Y-99474710D01*
X182627795Y-99634488D01*
X182687993Y-99747111D01*
X182875149Y-99748483D01*
X183277351Y-99346281D01*
X183347472Y-99351513D01*
X183355916Y-99420452D01*
X182951517Y-99824851D01*
X182952889Y-100012007D01*
X183103087Y-100087769D01*
X183265178Y-100132773D01*
X183432935Y-100145290D01*
X183599910Y-100124839D01*
X183759688Y-100072205D01*
X183808212Y-100046268D01*
X183890487Y-100087769D01*
X184052578Y-100132773D01*
X184220335Y-100145290D01*
X184387310Y-100124839D01*
X184547088Y-100072205D01*
X184595612Y-100046268D01*
X184677887Y-100087769D01*
X184839978Y-100132773D01*
X185007735Y-100145290D01*
X185174710Y-100124839D01*
X185334488Y-100072205D01*
X185447111Y-100012007D01*
X185448483Y-99824851D01*
X185046281Y-99422649D01*
X185051513Y-99352528D01*
X185120452Y-99344084D01*
X185524851Y-99748483D01*
X185712007Y-99747111D01*
X185787769Y-99596913D01*
X185832773Y-99434822D01*
X185845290Y-99267065D01*
X185824839Y-99100090D01*
X185772205Y-98940312D01*
X185746268Y-98891788D01*
X185787769Y-98809513D01*
X185832773Y-98647422D01*
X185845290Y-98479665D01*
X185836153Y-98405059D01*
X208246905Y-98405059D01*
X208304457Y-98594799D01*
X208430936Y-98849361D01*
X208604647Y-99074356D01*
X208818915Y-99261139D01*
X209065505Y-99402531D01*
X209334941Y-99493099D01*
X209560000Y-99376552D01*
X209560000Y-98180000D01*
X209760000Y-98180000D01*
X209760000Y-99376552D01*
X209985059Y-99493099D01*
X210254495Y-99402531D01*
X210501085Y-99261139D01*
X210715353Y-99074356D01*
X210889064Y-98849361D01*
X211015543Y-98594799D01*
X211073095Y-98405059D01*
X210956148Y-98180000D01*
X209760000Y-98180000D01*
X209560000Y-98180000D01*
X208363852Y-98180000D01*
X208246905Y-98405059D01*
X185836153Y-98405059D01*
X185824839Y-98312690D01*
X185772205Y-98152912D01*
X185746268Y-98104388D01*
X185787769Y-98022113D01*
X185832773Y-97860022D01*
X185845290Y-97692265D01*
X185824839Y-97525290D01*
X185772205Y-97365512D01*
X185712007Y-97252889D01*
X185524851Y-97251517D01*
X185122649Y-97653719D01*
X185052528Y-97648487D01*
X185044084Y-97579548D01*
X185448483Y-97175149D01*
X185447111Y-96987993D01*
X185296913Y-96912231D01*
X185134822Y-96867227D01*
X184967065Y-96854710D01*
X184800090Y-96875161D01*
X184640312Y-96927795D01*
X184591788Y-96953732D01*
X184509513Y-96912231D01*
X184347422Y-96867227D01*
X184179665Y-96854710D01*
X184012690Y-96875161D01*
X183852912Y-96927795D01*
X183804388Y-96953732D01*
X183722113Y-96912231D01*
X183560022Y-96867227D01*
X183392265Y-96854710D01*
X183225290Y-96875161D01*
X183065512Y-96927795D01*
X182952889Y-96987993D01*
X182951517Y-97175149D01*
X183353719Y-97577351D01*
X183348487Y-97647472D01*
X183279548Y-97655916D01*
X182875149Y-97251517D01*
X182687993Y-97252889D01*
X182612231Y-97403087D01*
X182567227Y-97565178D01*
X182554710Y-97732935D01*
X176150012Y-97732935D01*
X176150012Y-96931056D01*
X179500000Y-96931056D01*
X179500000Y-97068944D01*
X179526901Y-97204182D01*
X179579668Y-97331574D01*
X179656274Y-97446224D01*
X179753776Y-97543726D01*
X179868426Y-97620332D01*
X179995818Y-97673099D01*
X180131056Y-97700000D01*
X180268944Y-97700000D01*
X180404182Y-97673099D01*
X180531574Y-97620332D01*
X180646224Y-97543726D01*
X180743726Y-97446224D01*
X180820332Y-97331574D01*
X180873099Y-97204182D01*
X180900000Y-97068944D01*
X180900000Y-96931056D01*
X180873099Y-96795818D01*
X180820332Y-96668426D01*
X180743726Y-96553776D01*
X180700000Y-96510050D01*
X180700000Y-95619103D01*
X181922871Y-94396233D01*
X181956274Y-94446224D01*
X182053776Y-94543726D01*
X182168426Y-94620332D01*
X182295818Y-94673099D01*
X182431056Y-94700000D01*
X182492894Y-94700000D01*
X183129080Y-95336187D01*
X183144736Y-95355264D01*
X183220871Y-95417746D01*
X183307733Y-95464175D01*
X183401983Y-95492765D01*
X183500000Y-95502419D01*
X183524560Y-95500000D01*
X185606180Y-95500000D01*
X185600000Y-95531066D01*
X185600000Y-95668954D01*
X185626901Y-95804192D01*
X185679668Y-95931584D01*
X185756274Y-96046234D01*
X185853776Y-96143736D01*
X185968426Y-96220342D01*
X186095818Y-96273109D01*
X186231056Y-96300010D01*
X186368944Y-96300010D01*
X186504182Y-96273109D01*
X186583252Y-96240357D01*
X187600000Y-97257107D01*
X187600000Y-97318944D01*
X187626901Y-97454182D01*
X187679668Y-97581574D01*
X187756274Y-97696224D01*
X187853776Y-97793726D01*
X187968426Y-97870332D01*
X188095818Y-97923099D01*
X188231056Y-97950000D01*
X188368944Y-97950000D01*
X188504182Y-97923099D01*
X188631574Y-97870332D01*
X188746224Y-97793726D01*
X188785009Y-97754941D01*
X208246905Y-97754941D01*
X208363852Y-97980000D01*
X209560000Y-97980000D01*
X209560000Y-97960000D01*
X209760000Y-97960000D01*
X209760000Y-97980000D01*
X210956148Y-97980000D01*
X211073095Y-97754941D01*
X211015543Y-97565201D01*
X210889064Y-97310639D01*
X210715353Y-97085644D01*
X210501085Y-96898861D01*
X210314604Y-96791935D01*
X210510000Y-96791935D01*
X210588414Y-96784212D01*
X210663814Y-96761340D01*
X210733303Y-96724197D01*
X210794211Y-96674211D01*
X210844197Y-96613303D01*
X210881340Y-96543814D01*
X210904212Y-96468414D01*
X210911935Y-96390000D01*
X210911935Y-94690000D01*
X210904212Y-94611586D01*
X210881340Y-94536186D01*
X210844197Y-94466697D01*
X210794211Y-94405789D01*
X210733303Y-94355803D01*
X210663814Y-94318660D01*
X210588414Y-94295788D01*
X210510000Y-94288065D01*
X208810000Y-94288065D01*
X208731586Y-94295788D01*
X208656186Y-94318660D01*
X208586697Y-94355803D01*
X208525789Y-94405789D01*
X208475803Y-94466697D01*
X208438660Y-94536186D01*
X208415788Y-94611586D01*
X208408065Y-94690000D01*
X208408065Y-96390000D01*
X208415788Y-96468414D01*
X208438660Y-96543814D01*
X208475803Y-96613303D01*
X208525789Y-96674211D01*
X208586697Y-96724197D01*
X208656186Y-96761340D01*
X208731586Y-96784212D01*
X208810000Y-96791935D01*
X209005396Y-96791935D01*
X208818915Y-96898861D01*
X208604647Y-97085644D01*
X208430936Y-97310639D01*
X208304457Y-97565201D01*
X208246905Y-97754941D01*
X188785009Y-97754941D01*
X188843726Y-97696224D01*
X188920332Y-97581574D01*
X188973099Y-97454182D01*
X189000000Y-97318944D01*
X189000000Y-97181056D01*
X188973099Y-97045818D01*
X188920332Y-96918426D01*
X188843726Y-96803776D01*
X188746224Y-96706274D01*
X188631574Y-96629668D01*
X188504182Y-96576901D01*
X188368944Y-96550000D01*
X188307107Y-96550000D01*
X187359067Y-95601962D01*
X187446224Y-95543726D01*
X187543726Y-95446224D01*
X187620332Y-95331574D01*
X187673099Y-95204182D01*
X187700000Y-95068944D01*
X187700000Y-94931056D01*
X187673099Y-94795818D01*
X187620332Y-94668426D01*
X187543726Y-94553776D01*
X187446224Y-94456274D01*
X187331574Y-94379668D01*
X187204182Y-94326901D01*
X187068944Y-94300000D01*
X186931056Y-94300000D01*
X186795818Y-94326901D01*
X186668426Y-94379668D01*
X186553776Y-94456274D01*
X186510050Y-94500000D01*
X183707107Y-94500000D01*
X183200000Y-93992894D01*
X183200000Y-93931056D01*
X183193822Y-93899999D01*
X192131727Y-93899999D01*
X192131727Y-93937217D01*
X192158628Y-94072455D01*
X192211395Y-94199847D01*
X192288001Y-94314497D01*
X192385503Y-94411999D01*
X192500153Y-94488605D01*
X192627545Y-94541372D01*
X192762783Y-94568273D01*
X192900671Y-94568273D01*
X193035909Y-94541372D01*
X193163301Y-94488605D01*
X193277951Y-94411999D01*
X193375453Y-94314497D01*
X193393051Y-94288160D01*
X193941078Y-94836187D01*
X193956734Y-94855264D01*
X194032869Y-94917746D01*
X194119731Y-94964175D01*
X194213981Y-94992765D01*
X194287438Y-95000000D01*
X194287447Y-95000000D01*
X194311997Y-95002418D01*
X194336547Y-95000000D01*
X199010050Y-95000000D01*
X199053776Y-95043726D01*
X199168426Y-95120332D01*
X199295818Y-95173099D01*
X199431056Y-95200000D01*
X199568944Y-95200000D01*
X199704182Y-95173099D01*
X199831574Y-95120332D01*
X199946224Y-95043726D01*
X200043726Y-94946224D01*
X200120332Y-94831574D01*
X200173099Y-94704182D01*
X200200000Y-94568944D01*
X200200000Y-94431056D01*
X200173099Y-94295818D01*
X200120332Y-94168426D01*
X200043726Y-94053776D01*
X199946224Y-93956274D01*
X199831574Y-93879668D01*
X199704182Y-93826901D01*
X199568944Y-93800000D01*
X199431056Y-93800000D01*
X199295818Y-93826901D01*
X199168426Y-93879668D01*
X199053776Y-93956274D01*
X199010050Y-94000000D01*
X194519105Y-94000000D01*
X192229220Y-91710117D01*
X192273099Y-91604182D01*
X192300000Y-91468944D01*
X192300000Y-91331056D01*
X192273099Y-91195818D01*
X192220332Y-91068426D01*
X192143726Y-90953776D01*
X192046224Y-90856274D01*
X191931574Y-90779668D01*
X191804182Y-90726901D01*
X191668944Y-90700000D01*
X191531056Y-90700000D01*
X191395818Y-90726901D01*
X191268426Y-90779668D01*
X191153776Y-90856274D01*
X191056274Y-90953776D01*
X190979668Y-91068426D01*
X190926901Y-91195818D01*
X190900000Y-91331056D01*
X190900000Y-91468944D01*
X190926901Y-91604182D01*
X190979668Y-91731574D01*
X191056274Y-91846224D01*
X191112097Y-91902047D01*
X191135825Y-91980268D01*
X191182254Y-92067131D01*
X191244736Y-92143266D01*
X191263824Y-92158931D01*
X192004891Y-92899999D01*
X189689951Y-92899999D01*
X189743726Y-92846224D01*
X189820332Y-92731574D01*
X189873099Y-92604182D01*
X189900000Y-92468944D01*
X189900000Y-92331056D01*
X189873099Y-92195818D01*
X189820332Y-92068426D01*
X189747572Y-91959533D01*
X191707106Y-90000000D01*
X191768944Y-90000000D01*
X191904182Y-89973099D01*
X192031574Y-89920332D01*
X192146224Y-89843726D01*
X192243726Y-89746224D01*
X192320332Y-89631574D01*
X192373099Y-89504182D01*
X192400000Y-89368944D01*
X192400000Y-89231056D01*
X192373099Y-89095818D01*
X192320332Y-88968426D01*
X192243726Y-88853776D01*
X192146224Y-88756274D01*
X192031574Y-88679668D01*
X191904182Y-88626901D01*
X191768944Y-88600000D01*
X191631056Y-88600000D01*
X191495818Y-88626901D01*
X191368426Y-88679668D01*
X191253776Y-88756274D01*
X191156274Y-88853776D01*
X191079668Y-88968426D01*
X191026901Y-89095818D01*
X191000000Y-89231056D01*
X191000000Y-89292894D01*
X188863819Y-91429076D01*
X188844737Y-91444736D01*
X188782255Y-91520871D01*
X188742239Y-91595735D01*
X188735826Y-91607733D01*
X188707235Y-91701983D01*
X188697581Y-91800000D01*
X188700001Y-91824569D01*
X188700001Y-91910049D01*
X188656274Y-91953776D01*
X188579668Y-92068426D01*
X188526901Y-92195818D01*
X188500000Y-92331056D01*
X188500000Y-92468944D01*
X188526901Y-92604182D01*
X188579668Y-92731574D01*
X188656274Y-92846224D01*
X188710049Y-92899999D01*
X182236548Y-92899999D01*
X182211998Y-92897581D01*
X182187448Y-92899999D01*
X182187439Y-92899999D01*
X182113982Y-92907234D01*
X182019732Y-92935824D01*
X181932870Y-92982253D01*
X181856735Y-93044735D01*
X181841079Y-93063812D01*
X179863819Y-95041074D01*
X179844737Y-95056734D01*
X179782255Y-95132869D01*
X179746373Y-95200000D01*
X179735826Y-95219731D01*
X179707235Y-95313981D01*
X179697581Y-95411998D01*
X179700001Y-95436568D01*
X179700000Y-96510050D01*
X179656274Y-96553776D01*
X179579668Y-96668426D01*
X179526901Y-96795818D01*
X179500000Y-96931056D01*
X176150012Y-96931056D01*
X176150012Y-94574572D01*
X176152431Y-94550012D01*
X176142777Y-94451994D01*
X176134104Y-94423404D01*
X176114187Y-94357745D01*
X176067758Y-94270883D01*
X176005276Y-94194748D01*
X175986193Y-94179087D01*
X175263815Y-93456709D01*
X175301963Y-93364611D01*
X175350000Y-93123114D01*
X175350000Y-92876886D01*
X175301963Y-92635389D01*
X175207735Y-92407903D01*
X175070938Y-92203172D01*
X174896828Y-92029062D01*
X174692097Y-91892265D01*
X174464611Y-91798037D01*
X174223114Y-91750000D01*
X173976886Y-91750000D01*
X173735389Y-91798037D01*
X173507903Y-91892265D01*
X173303172Y-92029062D01*
X173129062Y-92203172D01*
X172992265Y-92407903D01*
X172898037Y-92635389D01*
X172850000Y-92876886D01*
X172850000Y-93123114D01*
X172898037Y-93364611D01*
X172992265Y-93592097D01*
X173129062Y-93796828D01*
X173303172Y-93970938D01*
X173507903Y-94107735D01*
X173735389Y-94201963D01*
X173976886Y-94250000D01*
X174223114Y-94250000D01*
X174464611Y-94201963D01*
X174556709Y-94163815D01*
X175150013Y-94757119D01*
X175150013Y-94861516D01*
X175070938Y-94743172D01*
X174896828Y-94569062D01*
X174692097Y-94432265D01*
X174464611Y-94338037D01*
X174223114Y-94290000D01*
X173976886Y-94290000D01*
X173735389Y-94338037D01*
X173507903Y-94432265D01*
X173303172Y-94569062D01*
X173129062Y-94743172D01*
X172992265Y-94947903D01*
X172898037Y-95175389D01*
X172850000Y-95416886D01*
X172850000Y-95663114D01*
X172898037Y-95904611D01*
X172936185Y-95996709D01*
X172613818Y-96319077D01*
X172594736Y-96334737D01*
X172532254Y-96410872D01*
X172507986Y-96456274D01*
X172485825Y-96497734D01*
X172457234Y-96591984D01*
X172447580Y-96690001D01*
X172425000Y-96690001D01*
X172425000Y-87796886D01*
X172850000Y-87796886D01*
X172850000Y-88043114D01*
X172898037Y-88284611D01*
X172992265Y-88512097D01*
X173129062Y-88716828D01*
X173303172Y-88890938D01*
X173507903Y-89027735D01*
X173735389Y-89121963D01*
X173976886Y-89170000D01*
X174223114Y-89170000D01*
X174418897Y-89131056D01*
X181200000Y-89131056D01*
X181200000Y-89268944D01*
X181226901Y-89404182D01*
X181279668Y-89531574D01*
X181356274Y-89646224D01*
X181453776Y-89743726D01*
X181568426Y-89820332D01*
X181695818Y-89873099D01*
X181831056Y-89900000D01*
X181968944Y-89900000D01*
X182104182Y-89873099D01*
X182231574Y-89820332D01*
X182346224Y-89743726D01*
X182443726Y-89646224D01*
X182520332Y-89531574D01*
X182573099Y-89404182D01*
X182600000Y-89268944D01*
X182600000Y-89207105D01*
X184010219Y-87796886D01*
X208410000Y-87796886D01*
X208410000Y-88043114D01*
X208458037Y-88284611D01*
X208552265Y-88512097D01*
X208689062Y-88716828D01*
X208863172Y-88890938D01*
X209067903Y-89027735D01*
X209295389Y-89121963D01*
X209536886Y-89170000D01*
X209783114Y-89170000D01*
X210024611Y-89121963D01*
X210252097Y-89027735D01*
X210456828Y-88890938D01*
X210630938Y-88716828D01*
X210767735Y-88512097D01*
X210861963Y-88284611D01*
X210910000Y-88043114D01*
X210910000Y-87796886D01*
X210861963Y-87555389D01*
X210767735Y-87327903D01*
X210630938Y-87123172D01*
X210456828Y-86949062D01*
X210252097Y-86812265D01*
X210024611Y-86718037D01*
X209783114Y-86670000D01*
X209536886Y-86670000D01*
X209295389Y-86718037D01*
X209067903Y-86812265D01*
X208863172Y-86949062D01*
X208689062Y-87123172D01*
X208552265Y-87327903D01*
X208458037Y-87555389D01*
X208410000Y-87796886D01*
X184010219Y-87796886D01*
X184652111Y-87154995D01*
X184695818Y-87173099D01*
X184831056Y-87200000D01*
X184968944Y-87200000D01*
X185104182Y-87173099D01*
X185231574Y-87120332D01*
X185346224Y-87043726D01*
X185443726Y-86946224D01*
X185520332Y-86831574D01*
X185573099Y-86704182D01*
X185600000Y-86568944D01*
X185600000Y-86431056D01*
X185573099Y-86295818D01*
X185520332Y-86168426D01*
X185443726Y-86053776D01*
X185346224Y-85956274D01*
X185231574Y-85879668D01*
X185104182Y-85826901D01*
X184968944Y-85800000D01*
X184831056Y-85800000D01*
X184695818Y-85826901D01*
X184568426Y-85879668D01*
X184453776Y-85956274D01*
X184356274Y-86053776D01*
X184346343Y-86068639D01*
X184320871Y-86082254D01*
X184244736Y-86144736D01*
X184229080Y-86163813D01*
X181892895Y-88500000D01*
X181831056Y-88500000D01*
X181695818Y-88526901D01*
X181568426Y-88579668D01*
X181453776Y-88656274D01*
X181356274Y-88753776D01*
X181279668Y-88868426D01*
X181226901Y-88995818D01*
X181200000Y-89131056D01*
X174418897Y-89131056D01*
X174464611Y-89121963D01*
X174692097Y-89027735D01*
X174896828Y-88890938D01*
X175070938Y-88716828D01*
X175207735Y-88512097D01*
X175301963Y-88284611D01*
X175350000Y-88043114D01*
X175350000Y-87796886D01*
X175301963Y-87555389D01*
X175207735Y-87327903D01*
X175070938Y-87123172D01*
X174896828Y-86949062D01*
X174692097Y-86812265D01*
X174464611Y-86718037D01*
X174223114Y-86670000D01*
X173976886Y-86670000D01*
X173735389Y-86718037D01*
X173507903Y-86812265D01*
X173303172Y-86949062D01*
X173129062Y-87123172D01*
X172992265Y-87327903D01*
X172898037Y-87555389D01*
X172850000Y-87796886D01*
X172425000Y-87796886D01*
X172425000Y-83165059D01*
X172686905Y-83165059D01*
X172744457Y-83354799D01*
X172870936Y-83609361D01*
X173044647Y-83834356D01*
X173258915Y-84021139D01*
X173505505Y-84162531D01*
X173653072Y-84212134D01*
X173507903Y-84272265D01*
X173303172Y-84409062D01*
X173129062Y-84583172D01*
X172992265Y-84787903D01*
X172898037Y-85015389D01*
X172850000Y-85256886D01*
X172850000Y-85503114D01*
X172898037Y-85744611D01*
X172992265Y-85972097D01*
X173129062Y-86176828D01*
X173303172Y-86350938D01*
X173507903Y-86487735D01*
X173735389Y-86581963D01*
X173976886Y-86630000D01*
X174223114Y-86630000D01*
X174464611Y-86581963D01*
X174692097Y-86487735D01*
X174896828Y-86350938D01*
X175070938Y-86176828D01*
X175207735Y-85972097D01*
X175301963Y-85744611D01*
X175350000Y-85503114D01*
X175350000Y-85256886D01*
X175301963Y-85015389D01*
X175207735Y-84787903D01*
X175070938Y-84583172D01*
X174896828Y-84409062D01*
X174692097Y-84272265D01*
X174546928Y-84212134D01*
X174694495Y-84162531D01*
X174941085Y-84021139D01*
X175155353Y-83834356D01*
X175329064Y-83609361D01*
X175455543Y-83354799D01*
X175513095Y-83165059D01*
X208246905Y-83165059D01*
X208304457Y-83354799D01*
X208430936Y-83609361D01*
X208604647Y-83834356D01*
X208818915Y-84021139D01*
X209065505Y-84162531D01*
X209213072Y-84212134D01*
X209067903Y-84272265D01*
X208863172Y-84409062D01*
X208689062Y-84583172D01*
X208552265Y-84787903D01*
X208458037Y-85015389D01*
X208410000Y-85256886D01*
X208410000Y-85503114D01*
X208458037Y-85744611D01*
X208552265Y-85972097D01*
X208689062Y-86176828D01*
X208863172Y-86350938D01*
X209067903Y-86487735D01*
X209295389Y-86581963D01*
X209536886Y-86630000D01*
X209783114Y-86630000D01*
X210024611Y-86581963D01*
X210252097Y-86487735D01*
X210456828Y-86350938D01*
X210630938Y-86176828D01*
X210767735Y-85972097D01*
X210861963Y-85744611D01*
X210910000Y-85503114D01*
X210910000Y-85256886D01*
X210861963Y-85015389D01*
X210767735Y-84787903D01*
X210630938Y-84583172D01*
X210456828Y-84409062D01*
X210252097Y-84272265D01*
X210106928Y-84212134D01*
X210254495Y-84162531D01*
X210501085Y-84021139D01*
X210715353Y-83834356D01*
X210889064Y-83609361D01*
X211015543Y-83354799D01*
X211073095Y-83165059D01*
X210956148Y-82940000D01*
X209760000Y-82940000D01*
X209760000Y-82960000D01*
X209560000Y-82960000D01*
X209560000Y-82940000D01*
X208363852Y-82940000D01*
X208246905Y-83165059D01*
X175513095Y-83165059D01*
X175396148Y-82940000D01*
X174200000Y-82940000D01*
X174200000Y-82960000D01*
X174000000Y-82960000D01*
X174000000Y-82940000D01*
X172803852Y-82940000D01*
X172686905Y-83165059D01*
X172425000Y-83165059D01*
X172425000Y-81150000D01*
X172647097Y-81150000D01*
X172658682Y-81267621D01*
X172692990Y-81380721D01*
X172748704Y-81484955D01*
X172823683Y-81576317D01*
X172915045Y-81651296D01*
X173019279Y-81707010D01*
X173132379Y-81741318D01*
X173161081Y-81744145D01*
X173044647Y-81845644D01*
X172870936Y-82070639D01*
X172744457Y-82325201D01*
X172686905Y-82514941D01*
X172803852Y-82740000D01*
X174000000Y-82740000D01*
X174000000Y-80400000D01*
X174200000Y-80400000D01*
X174200000Y-82740000D01*
X175396148Y-82740000D01*
X175513095Y-82514941D01*
X175455543Y-82325201D01*
X175329064Y-82070639D01*
X175155353Y-81845644D01*
X175038919Y-81744145D01*
X175067621Y-81741318D01*
X175180721Y-81707010D01*
X175284955Y-81651296D01*
X175376317Y-81576317D01*
X175451296Y-81484955D01*
X175507010Y-81380721D01*
X175541318Y-81267621D01*
X175552903Y-81150000D01*
X208207097Y-81150000D01*
X208218682Y-81267621D01*
X208252990Y-81380721D01*
X208308704Y-81484955D01*
X208383683Y-81576317D01*
X208475045Y-81651296D01*
X208579279Y-81707010D01*
X208692379Y-81741318D01*
X208721081Y-81744145D01*
X208604647Y-81845644D01*
X208430936Y-82070639D01*
X208304457Y-82325201D01*
X208246905Y-82514941D01*
X208363852Y-82740000D01*
X209560000Y-82740000D01*
X209560000Y-80400000D01*
X209760000Y-80400000D01*
X209760000Y-82740000D01*
X210956148Y-82740000D01*
X211073095Y-82514941D01*
X211015543Y-82325201D01*
X210889064Y-82070639D01*
X210715353Y-81845644D01*
X210598919Y-81744145D01*
X210627621Y-81741318D01*
X210740721Y-81707010D01*
X210844955Y-81651296D01*
X210936317Y-81576317D01*
X211011296Y-81484955D01*
X211067010Y-81380721D01*
X211101318Y-81267621D01*
X211112903Y-81150000D01*
X211110000Y-80550000D01*
X210960000Y-80400000D01*
X209760000Y-80400000D01*
X209560000Y-80400000D01*
X208360000Y-80400000D01*
X208210000Y-80550000D01*
X208207097Y-81150000D01*
X175552903Y-81150000D01*
X175550000Y-80550000D01*
X175400000Y-80400000D01*
X174200000Y-80400000D01*
X174000000Y-80400000D01*
X172800000Y-80400000D01*
X172650000Y-80550000D01*
X172647097Y-81150000D01*
X172425000Y-81150000D01*
X172425000Y-79920789D01*
X172447472Y-79691594D01*
X172507997Y-79491127D01*
X172606309Y-79306231D01*
X172722971Y-79163189D01*
X172692990Y-79219279D01*
X172658682Y-79332379D01*
X172647097Y-79450000D01*
X172650000Y-80050000D01*
X172800000Y-80200000D01*
X174000000Y-80200000D01*
X174000000Y-79000000D01*
X174200000Y-79000000D01*
X174200000Y-80200000D01*
X175400000Y-80200000D01*
X175550000Y-80050000D01*
X175552903Y-79450000D01*
X208207097Y-79450000D01*
X208210000Y-80050000D01*
X208360000Y-80200000D01*
X209560000Y-80200000D01*
X209560000Y-79000000D01*
X209760000Y-79000000D01*
X209760000Y-80200000D01*
X210960000Y-80200000D01*
X211110000Y-80050000D01*
X211112903Y-79450000D01*
X211101318Y-79332379D01*
X211067010Y-79219279D01*
X211011296Y-79115045D01*
X210936317Y-79023683D01*
X210844955Y-78948704D01*
X210740721Y-78892990D01*
X210627621Y-78858682D01*
X210510000Y-78847097D01*
X209910000Y-78850000D01*
X209760000Y-79000000D01*
X209560000Y-79000000D01*
X209410000Y-78850000D01*
X208810000Y-78847097D01*
X208692379Y-78858682D01*
X208579279Y-78892990D01*
X208475045Y-78948704D01*
X208383683Y-79023683D01*
X208308704Y-79115045D01*
X208252990Y-79219279D01*
X208218682Y-79332379D01*
X208207097Y-79450000D01*
X175552903Y-79450000D01*
X175541318Y-79332379D01*
X175507010Y-79219279D01*
X175451296Y-79115045D01*
X175376317Y-79023683D01*
X175284955Y-78948704D01*
X175180721Y-78892990D01*
X175067621Y-78858682D01*
X174950000Y-78847097D01*
X174350000Y-78850000D01*
X174200000Y-79000000D01*
X174000000Y-79000000D01*
X173850000Y-78850000D01*
X173299627Y-78847337D01*
X173512154Y-78825000D01*
X210479211Y-78825000D01*
X210708406Y-78847472D01*
G04 #@! TA.AperFunction,Conductor*
D17*
G36*
X210708406Y-78847472D02*
G01*
X210908873Y-78907997D01*
X211093769Y-79006309D01*
X211256046Y-79138658D01*
X211389526Y-79300008D01*
X211489125Y-79484211D01*
X211551047Y-79684249D01*
X211575001Y-79912164D01*
X211575000Y-106879211D01*
X211552528Y-107108406D01*
X211492003Y-107308873D01*
X211393691Y-107493769D01*
X211261342Y-107656046D01*
X211099992Y-107789526D01*
X210915789Y-107889125D01*
X210715751Y-107951047D01*
X210487855Y-107974999D01*
X184144748Y-107972628D01*
X184173099Y-107904182D01*
X184200000Y-107768944D01*
X184200000Y-107631056D01*
X184173099Y-107495818D01*
X184120332Y-107368426D01*
X184043726Y-107253776D01*
X183946224Y-107156274D01*
X183831574Y-107079668D01*
X183704182Y-107026901D01*
X183568944Y-107000000D01*
X183507106Y-107000000D01*
X181200000Y-104692895D01*
X181200000Y-102931056D01*
X184000000Y-102931056D01*
X184000000Y-103068944D01*
X184026901Y-103204182D01*
X184079668Y-103331574D01*
X184156274Y-103446224D01*
X184253776Y-103543726D01*
X184368426Y-103620332D01*
X184495818Y-103673099D01*
X184631056Y-103700000D01*
X184768944Y-103700000D01*
X184904182Y-103673099D01*
X185031574Y-103620332D01*
X185146224Y-103543726D01*
X185189950Y-103500000D01*
X186875440Y-103500000D01*
X186900000Y-103502419D01*
X186924560Y-103500000D01*
X186998017Y-103492765D01*
X187092267Y-103464175D01*
X187179129Y-103417746D01*
X187255264Y-103355264D01*
X187270929Y-103336176D01*
X190107107Y-100500000D01*
X192010050Y-100500000D01*
X192053776Y-100543726D01*
X192168426Y-100620332D01*
X192295818Y-100673099D01*
X192431056Y-100700000D01*
X192492895Y-100700000D01*
X194400001Y-102607107D01*
X194400000Y-105375440D01*
X194400000Y-105410050D01*
X194356274Y-105453776D01*
X194279668Y-105568426D01*
X194226901Y-105695818D01*
X194200000Y-105831056D01*
X194200000Y-105968944D01*
X194226901Y-106104182D01*
X194279668Y-106231574D01*
X194356274Y-106346224D01*
X194453776Y-106443726D01*
X194568426Y-106520332D01*
X194695818Y-106573099D01*
X194831056Y-106600000D01*
X194968944Y-106600000D01*
X195104182Y-106573099D01*
X195231574Y-106520332D01*
X195346224Y-106443726D01*
X195443726Y-106346224D01*
X195520332Y-106231574D01*
X195573099Y-106104182D01*
X195600000Y-105968944D01*
X195600000Y-105831056D01*
X195573099Y-105695818D01*
X195520332Y-105568426D01*
X195443726Y-105453776D01*
X195400000Y-105410050D01*
X195400000Y-102424549D01*
X195402418Y-102399999D01*
X195400000Y-102375449D01*
X195400000Y-102375440D01*
X195392765Y-102301983D01*
X195364175Y-102207733D01*
X195317746Y-102120871D01*
X195255264Y-102044736D01*
X195236180Y-102029074D01*
X195170922Y-101963817D01*
X195170919Y-101963813D01*
X193200000Y-99992895D01*
X193200000Y-99931056D01*
X193173099Y-99795818D01*
X193120332Y-99668426D01*
X193043726Y-99553776D01*
X192946224Y-99456274D01*
X192831574Y-99379668D01*
X192704182Y-99326901D01*
X192568944Y-99300000D01*
X192431056Y-99300000D01*
X192295818Y-99326901D01*
X192168426Y-99379668D01*
X192053776Y-99456274D01*
X192010050Y-99500000D01*
X189924560Y-99500000D01*
X189900000Y-99497581D01*
X189875440Y-99500000D01*
X189801983Y-99507235D01*
X189707733Y-99535825D01*
X189620871Y-99582254D01*
X189544736Y-99644736D01*
X189529080Y-99663813D01*
X186692895Y-102500000D01*
X185189950Y-102500000D01*
X185146224Y-102456274D01*
X185031574Y-102379668D01*
X184904182Y-102326901D01*
X184768944Y-102300000D01*
X184631056Y-102300000D01*
X184495818Y-102326901D01*
X184368426Y-102379668D01*
X184253776Y-102456274D01*
X184156274Y-102553776D01*
X184079668Y-102668426D01*
X184026901Y-102795818D01*
X184000000Y-102931056D01*
X181200000Y-102931056D01*
X181200000Y-101689950D01*
X181243726Y-101646224D01*
X181320332Y-101531574D01*
X181373099Y-101404182D01*
X181400000Y-101268944D01*
X181400000Y-101131056D01*
X181373099Y-100995818D01*
X181320332Y-100868426D01*
X181243726Y-100753776D01*
X181146224Y-100656274D01*
X181031574Y-100579668D01*
X180904182Y-100526901D01*
X180768944Y-100500000D01*
X180631056Y-100500000D01*
X180495818Y-100526901D01*
X180368426Y-100579668D01*
X180253776Y-100656274D01*
X180156274Y-100753776D01*
X180079668Y-100868426D01*
X180026901Y-100995818D01*
X180000000Y-101131056D01*
X180000000Y-101268944D01*
X180026901Y-101404182D01*
X180079668Y-101531574D01*
X180156274Y-101646224D01*
X180200001Y-101689951D01*
X180200000Y-104875440D01*
X180197581Y-104900000D01*
X180207235Y-104998016D01*
X180235825Y-105092266D01*
X180282254Y-105179129D01*
X180344736Y-105255264D01*
X180363824Y-105270929D01*
X182800000Y-107707106D01*
X182800000Y-107768944D01*
X182826901Y-107904182D01*
X182855204Y-107972512D01*
X173606463Y-107971679D01*
X173362068Y-107964060D01*
X173158018Y-107917004D01*
X172966994Y-107831210D01*
X172796274Y-107709949D01*
X172652356Y-107557836D01*
X172540724Y-107380664D01*
X172465632Y-107185185D01*
X172427716Y-106965997D01*
X172425000Y-106892177D01*
X172425000Y-96690001D01*
X172447580Y-96690001D01*
X172450000Y-96714571D01*
X172449999Y-101685441D01*
X172447580Y-101710001D01*
X172457234Y-101808018D01*
X172465670Y-101835826D01*
X172485824Y-101902267D01*
X172532253Y-101989130D01*
X172594735Y-102065265D01*
X172613823Y-102080930D01*
X177369078Y-106836187D01*
X177384734Y-106855264D01*
X177460869Y-106917746D01*
X177547731Y-106964175D01*
X177641981Y-106992765D01*
X177739998Y-107002419D01*
X177764558Y-107000000D01*
X179210050Y-107000000D01*
X179253776Y-107043726D01*
X179368426Y-107120332D01*
X179495818Y-107173099D01*
X179631056Y-107200000D01*
X179768944Y-107200000D01*
X179904182Y-107173099D01*
X180031574Y-107120332D01*
X180146224Y-107043726D01*
X180243726Y-106946224D01*
X180320332Y-106831574D01*
X180373099Y-106704182D01*
X180400000Y-106568944D01*
X180400000Y-106431056D01*
X180373099Y-106295818D01*
X180320332Y-106168426D01*
X180243726Y-106053776D01*
X180146224Y-105956274D01*
X180031574Y-105879668D01*
X179904182Y-105826901D01*
X179768944Y-105800000D01*
X179631056Y-105800000D01*
X179495818Y-105826901D01*
X179368426Y-105879668D01*
X179253776Y-105956274D01*
X179210050Y-106000000D01*
X177947105Y-106000000D01*
X173933552Y-101986448D01*
X174000000Y-101920000D01*
X174000000Y-100720000D01*
X173980000Y-100720000D01*
X173980000Y-100520000D01*
X174000000Y-100520000D01*
X174000000Y-100500000D01*
X174200000Y-100500000D01*
X174200000Y-100520000D01*
X174220000Y-100520000D01*
X174220000Y-100720000D01*
X174200000Y-100720000D01*
X174200000Y-101920000D01*
X174350000Y-102070000D01*
X174950000Y-102072903D01*
X175067621Y-102061318D01*
X175180721Y-102027010D01*
X175284955Y-101971296D01*
X175376317Y-101896317D01*
X175451296Y-101804955D01*
X175507010Y-101700721D01*
X175527167Y-101634272D01*
X176100000Y-102207107D01*
X176100000Y-102268944D01*
X176126901Y-102404182D01*
X176179668Y-102531574D01*
X176256274Y-102646224D01*
X176353776Y-102743726D01*
X176468426Y-102820332D01*
X176595818Y-102873099D01*
X176731056Y-102900000D01*
X176868944Y-102900000D01*
X177004182Y-102873099D01*
X177131574Y-102820332D01*
X177246224Y-102743726D01*
X177343726Y-102646224D01*
X177420332Y-102531574D01*
X177473099Y-102404182D01*
X177476105Y-102389069D01*
X177531056Y-102400000D01*
X177668944Y-102400000D01*
X177804182Y-102373099D01*
X177931574Y-102320332D01*
X178046224Y-102243726D01*
X178143726Y-102146224D01*
X178220332Y-102031574D01*
X178273099Y-101904182D01*
X178300000Y-101768944D01*
X178300000Y-101631056D01*
X178273099Y-101495818D01*
X178220332Y-101368426D01*
X178143726Y-101253776D01*
X178046224Y-101156274D01*
X177931574Y-101079668D01*
X177804182Y-101026901D01*
X177668944Y-101000000D01*
X177607107Y-101000000D01*
X176150012Y-99542907D01*
X176150012Y-97732935D01*
X182554710Y-97732935D01*
X182575161Y-97899910D01*
X182627795Y-98059688D01*
X182653732Y-98108212D01*
X182612231Y-98190487D01*
X182567227Y-98352578D01*
X182554710Y-98520335D01*
X182575161Y-98687310D01*
X182627795Y-98847088D01*
X182653732Y-98895612D01*
X182612231Y-98977887D01*
X182567227Y-99139978D01*
X182554710Y-99307735D01*
X182575161Y-99474710D01*
X182627795Y-99634488D01*
X182687993Y-99747111D01*
X182875149Y-99748483D01*
X183277351Y-99346281D01*
X183347472Y-99351513D01*
X183355916Y-99420452D01*
X182951517Y-99824851D01*
X182952889Y-100012007D01*
X183103087Y-100087769D01*
X183265178Y-100132773D01*
X183432935Y-100145290D01*
X183599910Y-100124839D01*
X183759688Y-100072205D01*
X183808212Y-100046268D01*
X183890487Y-100087769D01*
X184052578Y-100132773D01*
X184220335Y-100145290D01*
X184387310Y-100124839D01*
X184547088Y-100072205D01*
X184595612Y-100046268D01*
X184677887Y-100087769D01*
X184839978Y-100132773D01*
X185007735Y-100145290D01*
X185174710Y-100124839D01*
X185334488Y-100072205D01*
X185447111Y-100012007D01*
X185448483Y-99824851D01*
X185046281Y-99422649D01*
X185051513Y-99352528D01*
X185120452Y-99344084D01*
X185524851Y-99748483D01*
X185712007Y-99747111D01*
X185787769Y-99596913D01*
X185832773Y-99434822D01*
X185845290Y-99267065D01*
X185824839Y-99100090D01*
X185772205Y-98940312D01*
X185746268Y-98891788D01*
X185787769Y-98809513D01*
X185832773Y-98647422D01*
X185845290Y-98479665D01*
X185836153Y-98405059D01*
X208246905Y-98405059D01*
X208304457Y-98594799D01*
X208430936Y-98849361D01*
X208604647Y-99074356D01*
X208818915Y-99261139D01*
X209065505Y-99402531D01*
X209334941Y-99493099D01*
X209560000Y-99376552D01*
X209560000Y-98180000D01*
X209760000Y-98180000D01*
X209760000Y-99376552D01*
X209985059Y-99493099D01*
X210254495Y-99402531D01*
X210501085Y-99261139D01*
X210715353Y-99074356D01*
X210889064Y-98849361D01*
X211015543Y-98594799D01*
X211073095Y-98405059D01*
X210956148Y-98180000D01*
X209760000Y-98180000D01*
X209560000Y-98180000D01*
X208363852Y-98180000D01*
X208246905Y-98405059D01*
X185836153Y-98405059D01*
X185824839Y-98312690D01*
X185772205Y-98152912D01*
X185746268Y-98104388D01*
X185787769Y-98022113D01*
X185832773Y-97860022D01*
X185845290Y-97692265D01*
X185824839Y-97525290D01*
X185772205Y-97365512D01*
X185712007Y-97252889D01*
X185524851Y-97251517D01*
X185122649Y-97653719D01*
X185052528Y-97648487D01*
X185044084Y-97579548D01*
X185448483Y-97175149D01*
X185447111Y-96987993D01*
X185296913Y-96912231D01*
X185134822Y-96867227D01*
X184967065Y-96854710D01*
X184800090Y-96875161D01*
X184640312Y-96927795D01*
X184591788Y-96953732D01*
X184509513Y-96912231D01*
X184347422Y-96867227D01*
X184179665Y-96854710D01*
X184012690Y-96875161D01*
X183852912Y-96927795D01*
X183804388Y-96953732D01*
X183722113Y-96912231D01*
X183560022Y-96867227D01*
X183392265Y-96854710D01*
X183225290Y-96875161D01*
X183065512Y-96927795D01*
X182952889Y-96987993D01*
X182951517Y-97175149D01*
X183353719Y-97577351D01*
X183348487Y-97647472D01*
X183279548Y-97655916D01*
X182875149Y-97251517D01*
X182687993Y-97252889D01*
X182612231Y-97403087D01*
X182567227Y-97565178D01*
X182554710Y-97732935D01*
X176150012Y-97732935D01*
X176150012Y-96931056D01*
X179500000Y-96931056D01*
X179500000Y-97068944D01*
X179526901Y-97204182D01*
X179579668Y-97331574D01*
X179656274Y-97446224D01*
X179753776Y-97543726D01*
X179868426Y-97620332D01*
X179995818Y-97673099D01*
X180131056Y-97700000D01*
X180268944Y-97700000D01*
X180404182Y-97673099D01*
X180531574Y-97620332D01*
X180646224Y-97543726D01*
X180743726Y-97446224D01*
X180820332Y-97331574D01*
X180873099Y-97204182D01*
X180900000Y-97068944D01*
X180900000Y-96931056D01*
X180873099Y-96795818D01*
X180820332Y-96668426D01*
X180743726Y-96553776D01*
X180700000Y-96510050D01*
X180700000Y-95619103D01*
X181922871Y-94396233D01*
X181956274Y-94446224D01*
X182053776Y-94543726D01*
X182168426Y-94620332D01*
X182295818Y-94673099D01*
X182431056Y-94700000D01*
X182492894Y-94700000D01*
X183129080Y-95336187D01*
X183144736Y-95355264D01*
X183220871Y-95417746D01*
X183307733Y-95464175D01*
X183401983Y-95492765D01*
X183500000Y-95502419D01*
X183524560Y-95500000D01*
X185606180Y-95500000D01*
X185600000Y-95531066D01*
X185600000Y-95668954D01*
X185626901Y-95804192D01*
X185679668Y-95931584D01*
X185756274Y-96046234D01*
X185853776Y-96143736D01*
X185968426Y-96220342D01*
X186095818Y-96273109D01*
X186231056Y-96300010D01*
X186368944Y-96300010D01*
X186504182Y-96273109D01*
X186583252Y-96240357D01*
X187600000Y-97257107D01*
X187600000Y-97318944D01*
X187626901Y-97454182D01*
X187679668Y-97581574D01*
X187756274Y-97696224D01*
X187853776Y-97793726D01*
X187968426Y-97870332D01*
X188095818Y-97923099D01*
X188231056Y-97950000D01*
X188368944Y-97950000D01*
X188504182Y-97923099D01*
X188631574Y-97870332D01*
X188746224Y-97793726D01*
X188785009Y-97754941D01*
X208246905Y-97754941D01*
X208363852Y-97980000D01*
X209560000Y-97980000D01*
X209560000Y-97960000D01*
X209760000Y-97960000D01*
X209760000Y-97980000D01*
X210956148Y-97980000D01*
X211073095Y-97754941D01*
X211015543Y-97565201D01*
X210889064Y-97310639D01*
X210715353Y-97085644D01*
X210501085Y-96898861D01*
X210314604Y-96791935D01*
X210510000Y-96791935D01*
X210588414Y-96784212D01*
X210663814Y-96761340D01*
X210733303Y-96724197D01*
X210794211Y-96674211D01*
X210844197Y-96613303D01*
X210881340Y-96543814D01*
X210904212Y-96468414D01*
X210911935Y-96390000D01*
X210911935Y-94690000D01*
X210904212Y-94611586D01*
X210881340Y-94536186D01*
X210844197Y-94466697D01*
X210794211Y-94405789D01*
X210733303Y-94355803D01*
X210663814Y-94318660D01*
X210588414Y-94295788D01*
X210510000Y-94288065D01*
X208810000Y-94288065D01*
X208731586Y-94295788D01*
X208656186Y-94318660D01*
X208586697Y-94355803D01*
X208525789Y-94405789D01*
X208475803Y-94466697D01*
X208438660Y-94536186D01*
X208415788Y-94611586D01*
X208408065Y-94690000D01*
X208408065Y-96390000D01*
X208415788Y-96468414D01*
X208438660Y-96543814D01*
X208475803Y-96613303D01*
X208525789Y-96674211D01*
X208586697Y-96724197D01*
X208656186Y-96761340D01*
X208731586Y-96784212D01*
X208810000Y-96791935D01*
X209005396Y-96791935D01*
X208818915Y-96898861D01*
X208604647Y-97085644D01*
X208430936Y-97310639D01*
X208304457Y-97565201D01*
X208246905Y-97754941D01*
X188785009Y-97754941D01*
X188843726Y-97696224D01*
X188920332Y-97581574D01*
X188973099Y-97454182D01*
X189000000Y-97318944D01*
X189000000Y-97181056D01*
X188973099Y-97045818D01*
X188920332Y-96918426D01*
X188843726Y-96803776D01*
X188746224Y-96706274D01*
X188631574Y-96629668D01*
X188504182Y-96576901D01*
X188368944Y-96550000D01*
X188307107Y-96550000D01*
X187359067Y-95601962D01*
X187446224Y-95543726D01*
X187543726Y-95446224D01*
X187620332Y-95331574D01*
X187673099Y-95204182D01*
X187700000Y-95068944D01*
X187700000Y-94931056D01*
X187673099Y-94795818D01*
X187620332Y-94668426D01*
X187543726Y-94553776D01*
X187446224Y-94456274D01*
X187331574Y-94379668D01*
X187204182Y-94326901D01*
X187068944Y-94300000D01*
X186931056Y-94300000D01*
X186795818Y-94326901D01*
X186668426Y-94379668D01*
X186553776Y-94456274D01*
X186510050Y-94500000D01*
X183707107Y-94500000D01*
X183200000Y-93992894D01*
X183200000Y-93931056D01*
X183193822Y-93899999D01*
X192131727Y-93899999D01*
X192131727Y-93937217D01*
X192158628Y-94072455D01*
X192211395Y-94199847D01*
X192288001Y-94314497D01*
X192385503Y-94411999D01*
X192500153Y-94488605D01*
X192627545Y-94541372D01*
X192762783Y-94568273D01*
X192900671Y-94568273D01*
X193035909Y-94541372D01*
X193163301Y-94488605D01*
X193277951Y-94411999D01*
X193375453Y-94314497D01*
X193393051Y-94288160D01*
X193941078Y-94836187D01*
X193956734Y-94855264D01*
X194032869Y-94917746D01*
X194119731Y-94964175D01*
X194213981Y-94992765D01*
X194287438Y-95000000D01*
X194287447Y-95000000D01*
X194311997Y-95002418D01*
X194336547Y-95000000D01*
X199010050Y-95000000D01*
X199053776Y-95043726D01*
X199168426Y-95120332D01*
X199295818Y-95173099D01*
X199431056Y-95200000D01*
X199568944Y-95200000D01*
X199704182Y-95173099D01*
X199831574Y-95120332D01*
X199946224Y-95043726D01*
X200043726Y-94946224D01*
X200120332Y-94831574D01*
X200173099Y-94704182D01*
X200200000Y-94568944D01*
X200200000Y-94431056D01*
X200173099Y-94295818D01*
X200120332Y-94168426D01*
X200043726Y-94053776D01*
X199946224Y-93956274D01*
X199831574Y-93879668D01*
X199704182Y-93826901D01*
X199568944Y-93800000D01*
X199431056Y-93800000D01*
X199295818Y-93826901D01*
X199168426Y-93879668D01*
X199053776Y-93956274D01*
X199010050Y-94000000D01*
X194519105Y-94000000D01*
X192229220Y-91710117D01*
X192273099Y-91604182D01*
X192300000Y-91468944D01*
X192300000Y-91331056D01*
X192273099Y-91195818D01*
X192220332Y-91068426D01*
X192143726Y-90953776D01*
X192046224Y-90856274D01*
X191931574Y-90779668D01*
X191804182Y-90726901D01*
X191668944Y-90700000D01*
X191531056Y-90700000D01*
X191395818Y-90726901D01*
X191268426Y-90779668D01*
X191153776Y-90856274D01*
X191056274Y-90953776D01*
X190979668Y-91068426D01*
X190926901Y-91195818D01*
X190900000Y-91331056D01*
X190900000Y-91468944D01*
X190926901Y-91604182D01*
X190979668Y-91731574D01*
X191056274Y-91846224D01*
X191112097Y-91902047D01*
X191135825Y-91980268D01*
X191182254Y-92067131D01*
X191244736Y-92143266D01*
X191263824Y-92158931D01*
X192004891Y-92899999D01*
X189689951Y-92899999D01*
X189743726Y-92846224D01*
X189820332Y-92731574D01*
X189873099Y-92604182D01*
X189900000Y-92468944D01*
X189900000Y-92331056D01*
X189873099Y-92195818D01*
X189820332Y-92068426D01*
X189747572Y-91959533D01*
X191707106Y-90000000D01*
X191768944Y-90000000D01*
X191904182Y-89973099D01*
X192031574Y-89920332D01*
X192146224Y-89843726D01*
X192243726Y-89746224D01*
X192320332Y-89631574D01*
X192373099Y-89504182D01*
X192400000Y-89368944D01*
X192400000Y-89231056D01*
X192373099Y-89095818D01*
X192320332Y-88968426D01*
X192243726Y-88853776D01*
X192146224Y-88756274D01*
X192031574Y-88679668D01*
X191904182Y-88626901D01*
X191768944Y-88600000D01*
X191631056Y-88600000D01*
X191495818Y-88626901D01*
X191368426Y-88679668D01*
X191253776Y-88756274D01*
X191156274Y-88853776D01*
X191079668Y-88968426D01*
X191026901Y-89095818D01*
X191000000Y-89231056D01*
X191000000Y-89292894D01*
X188863819Y-91429076D01*
X188844737Y-91444736D01*
X188782255Y-91520871D01*
X188742239Y-91595735D01*
X188735826Y-91607733D01*
X188707235Y-91701983D01*
X188697581Y-91800000D01*
X188700001Y-91824569D01*
X188700001Y-91910049D01*
X188656274Y-91953776D01*
X188579668Y-92068426D01*
X188526901Y-92195818D01*
X188500000Y-92331056D01*
X188500000Y-92468944D01*
X188526901Y-92604182D01*
X188579668Y-92731574D01*
X188656274Y-92846224D01*
X188710049Y-92899999D01*
X182236548Y-92899999D01*
X182211998Y-92897581D01*
X182187448Y-92899999D01*
X182187439Y-92899999D01*
X182113982Y-92907234D01*
X182019732Y-92935824D01*
X181932870Y-92982253D01*
X181856735Y-93044735D01*
X181841079Y-93063812D01*
X179863819Y-95041074D01*
X179844737Y-95056734D01*
X179782255Y-95132869D01*
X179746373Y-95200000D01*
X179735826Y-95219731D01*
X179707235Y-95313981D01*
X179697581Y-95411998D01*
X179700001Y-95436568D01*
X179700000Y-96510050D01*
X179656274Y-96553776D01*
X179579668Y-96668426D01*
X179526901Y-96795818D01*
X179500000Y-96931056D01*
X176150012Y-96931056D01*
X176150012Y-94574572D01*
X176152431Y-94550012D01*
X176142777Y-94451994D01*
X176134104Y-94423404D01*
X176114187Y-94357745D01*
X176067758Y-94270883D01*
X176005276Y-94194748D01*
X175986193Y-94179087D01*
X175263815Y-93456709D01*
X175301963Y-93364611D01*
X175350000Y-93123114D01*
X175350000Y-92876886D01*
X175301963Y-92635389D01*
X175207735Y-92407903D01*
X175070938Y-92203172D01*
X174896828Y-92029062D01*
X174692097Y-91892265D01*
X174464611Y-91798037D01*
X174223114Y-91750000D01*
X173976886Y-91750000D01*
X173735389Y-91798037D01*
X173507903Y-91892265D01*
X173303172Y-92029062D01*
X173129062Y-92203172D01*
X172992265Y-92407903D01*
X172898037Y-92635389D01*
X172850000Y-92876886D01*
X172850000Y-93123114D01*
X172898037Y-93364611D01*
X172992265Y-93592097D01*
X173129062Y-93796828D01*
X173303172Y-93970938D01*
X173507903Y-94107735D01*
X173735389Y-94201963D01*
X173976886Y-94250000D01*
X174223114Y-94250000D01*
X174464611Y-94201963D01*
X174556709Y-94163815D01*
X175150013Y-94757119D01*
X175150013Y-94861516D01*
X175070938Y-94743172D01*
X174896828Y-94569062D01*
X174692097Y-94432265D01*
X174464611Y-94338037D01*
X174223114Y-94290000D01*
X173976886Y-94290000D01*
X173735389Y-94338037D01*
X173507903Y-94432265D01*
X173303172Y-94569062D01*
X173129062Y-94743172D01*
X172992265Y-94947903D01*
X172898037Y-95175389D01*
X172850000Y-95416886D01*
X172850000Y-95663114D01*
X172898037Y-95904611D01*
X172936185Y-95996709D01*
X172613818Y-96319077D01*
X172594736Y-96334737D01*
X172532254Y-96410872D01*
X172507986Y-96456274D01*
X172485825Y-96497734D01*
X172457234Y-96591984D01*
X172447580Y-96690001D01*
X172425000Y-96690001D01*
X172425000Y-87796886D01*
X172850000Y-87796886D01*
X172850000Y-88043114D01*
X172898037Y-88284611D01*
X172992265Y-88512097D01*
X173129062Y-88716828D01*
X173303172Y-88890938D01*
X173507903Y-89027735D01*
X173735389Y-89121963D01*
X173976886Y-89170000D01*
X174223114Y-89170000D01*
X174418897Y-89131056D01*
X181200000Y-89131056D01*
X181200000Y-89268944D01*
X181226901Y-89404182D01*
X181279668Y-89531574D01*
X181356274Y-89646224D01*
X181453776Y-89743726D01*
X181568426Y-89820332D01*
X181695818Y-89873099D01*
X181831056Y-89900000D01*
X181968944Y-89900000D01*
X182104182Y-89873099D01*
X182231574Y-89820332D01*
X182346224Y-89743726D01*
X182443726Y-89646224D01*
X182520332Y-89531574D01*
X182573099Y-89404182D01*
X182600000Y-89268944D01*
X182600000Y-89207105D01*
X184010219Y-87796886D01*
X208410000Y-87796886D01*
X208410000Y-88043114D01*
X208458037Y-88284611D01*
X208552265Y-88512097D01*
X208689062Y-88716828D01*
X208863172Y-88890938D01*
X209067903Y-89027735D01*
X209295389Y-89121963D01*
X209536886Y-89170000D01*
X209783114Y-89170000D01*
X210024611Y-89121963D01*
X210252097Y-89027735D01*
X210456828Y-88890938D01*
X210630938Y-88716828D01*
X210767735Y-88512097D01*
X210861963Y-88284611D01*
X210910000Y-88043114D01*
X210910000Y-87796886D01*
X210861963Y-87555389D01*
X210767735Y-87327903D01*
X210630938Y-87123172D01*
X210456828Y-86949062D01*
X210252097Y-86812265D01*
X210024611Y-86718037D01*
X209783114Y-86670000D01*
X209536886Y-86670000D01*
X209295389Y-86718037D01*
X209067903Y-86812265D01*
X208863172Y-86949062D01*
X208689062Y-87123172D01*
X208552265Y-87327903D01*
X208458037Y-87555389D01*
X208410000Y-87796886D01*
X184010219Y-87796886D01*
X184652111Y-87154995D01*
X184695818Y-87173099D01*
X184831056Y-87200000D01*
X184968944Y-87200000D01*
X185104182Y-87173099D01*
X185231574Y-87120332D01*
X185346224Y-87043726D01*
X185443726Y-86946224D01*
X185520332Y-86831574D01*
X185573099Y-86704182D01*
X185600000Y-86568944D01*
X185600000Y-86431056D01*
X185573099Y-86295818D01*
X185520332Y-86168426D01*
X185443726Y-86053776D01*
X185346224Y-85956274D01*
X185231574Y-85879668D01*
X185104182Y-85826901D01*
X184968944Y-85800000D01*
X184831056Y-85800000D01*
X184695818Y-85826901D01*
X184568426Y-85879668D01*
X184453776Y-85956274D01*
X184356274Y-86053776D01*
X184346343Y-86068639D01*
X184320871Y-86082254D01*
X184244736Y-86144736D01*
X184229080Y-86163813D01*
X181892895Y-88500000D01*
X181831056Y-88500000D01*
X181695818Y-88526901D01*
X181568426Y-88579668D01*
X181453776Y-88656274D01*
X181356274Y-88753776D01*
X181279668Y-88868426D01*
X181226901Y-88995818D01*
X181200000Y-89131056D01*
X174418897Y-89131056D01*
X174464611Y-89121963D01*
X174692097Y-89027735D01*
X174896828Y-88890938D01*
X175070938Y-88716828D01*
X175207735Y-88512097D01*
X175301963Y-88284611D01*
X175350000Y-88043114D01*
X175350000Y-87796886D01*
X175301963Y-87555389D01*
X175207735Y-87327903D01*
X175070938Y-87123172D01*
X174896828Y-86949062D01*
X174692097Y-86812265D01*
X174464611Y-86718037D01*
X174223114Y-86670000D01*
X173976886Y-86670000D01*
X173735389Y-86718037D01*
X173507903Y-86812265D01*
X173303172Y-86949062D01*
X173129062Y-87123172D01*
X172992265Y-87327903D01*
X172898037Y-87555389D01*
X172850000Y-87796886D01*
X172425000Y-87796886D01*
X172425000Y-83165059D01*
X172686905Y-83165059D01*
X172744457Y-83354799D01*
X172870936Y-83609361D01*
X173044647Y-83834356D01*
X173258915Y-84021139D01*
X173505505Y-84162531D01*
X173653072Y-84212134D01*
X173507903Y-84272265D01*
X173303172Y-84409062D01*
X173129062Y-84583172D01*
X172992265Y-84787903D01*
X172898037Y-85015389D01*
X172850000Y-85256886D01*
X172850000Y-85503114D01*
X172898037Y-85744611D01*
X172992265Y-85972097D01*
X173129062Y-86176828D01*
X173303172Y-86350938D01*
X173507903Y-86487735D01*
X173735389Y-86581963D01*
X173976886Y-86630000D01*
X174223114Y-86630000D01*
X174464611Y-86581963D01*
X174692097Y-86487735D01*
X174896828Y-86350938D01*
X175070938Y-86176828D01*
X175207735Y-85972097D01*
X175301963Y-85744611D01*
X175350000Y-85503114D01*
X175350000Y-85256886D01*
X175301963Y-85015389D01*
X175207735Y-84787903D01*
X175070938Y-84583172D01*
X174896828Y-84409062D01*
X174692097Y-84272265D01*
X174546928Y-84212134D01*
X174694495Y-84162531D01*
X174941085Y-84021139D01*
X175155353Y-83834356D01*
X175329064Y-83609361D01*
X175455543Y-83354799D01*
X175513095Y-83165059D01*
X208246905Y-83165059D01*
X208304457Y-83354799D01*
X208430936Y-83609361D01*
X208604647Y-83834356D01*
X208818915Y-84021139D01*
X209065505Y-84162531D01*
X209213072Y-84212134D01*
X209067903Y-84272265D01*
X208863172Y-84409062D01*
X208689062Y-84583172D01*
X208552265Y-84787903D01*
X208458037Y-85015389D01*
X208410000Y-85256886D01*
X208410000Y-85503114D01*
X208458037Y-85744611D01*
X208552265Y-85972097D01*
X208689062Y-86176828D01*
X208863172Y-86350938D01*
X209067903Y-86487735D01*
X209295389Y-86581963D01*
X209536886Y-86630000D01*
X209783114Y-86630000D01*
X210024611Y-86581963D01*
X210252097Y-86487735D01*
X210456828Y-86350938D01*
X210630938Y-86176828D01*
X210767735Y-85972097D01*
X210861963Y-85744611D01*
X210910000Y-85503114D01*
X210910000Y-85256886D01*
X210861963Y-85015389D01*
X210767735Y-84787903D01*
X210630938Y-84583172D01*
X210456828Y-84409062D01*
X210252097Y-84272265D01*
X210106928Y-84212134D01*
X210254495Y-84162531D01*
X210501085Y-84021139D01*
X210715353Y-83834356D01*
X210889064Y-83609361D01*
X211015543Y-83354799D01*
X211073095Y-83165059D01*
X210956148Y-82940000D01*
X209760000Y-82940000D01*
X209760000Y-82960000D01*
X209560000Y-82960000D01*
X209560000Y-82940000D01*
X208363852Y-82940000D01*
X208246905Y-83165059D01*
X175513095Y-83165059D01*
X175396148Y-82940000D01*
X174200000Y-82940000D01*
X174200000Y-82960000D01*
X174000000Y-82960000D01*
X174000000Y-82940000D01*
X172803852Y-82940000D01*
X172686905Y-83165059D01*
X172425000Y-83165059D01*
X172425000Y-81150000D01*
X172647097Y-81150000D01*
X172658682Y-81267621D01*
X172692990Y-81380721D01*
X172748704Y-81484955D01*
X172823683Y-81576317D01*
X172915045Y-81651296D01*
X173019279Y-81707010D01*
X173132379Y-81741318D01*
X173161081Y-81744145D01*
X173044647Y-81845644D01*
X172870936Y-82070639D01*
X172744457Y-82325201D01*
X172686905Y-82514941D01*
X172803852Y-82740000D01*
X174000000Y-82740000D01*
X174000000Y-80400000D01*
X174200000Y-80400000D01*
X174200000Y-82740000D01*
X175396148Y-82740000D01*
X175513095Y-82514941D01*
X175455543Y-82325201D01*
X175329064Y-82070639D01*
X175155353Y-81845644D01*
X175038919Y-81744145D01*
X175067621Y-81741318D01*
X175180721Y-81707010D01*
X175284955Y-81651296D01*
X175376317Y-81576317D01*
X175451296Y-81484955D01*
X175507010Y-81380721D01*
X175541318Y-81267621D01*
X175552903Y-81150000D01*
X208207097Y-81150000D01*
X208218682Y-81267621D01*
X208252990Y-81380721D01*
X208308704Y-81484955D01*
X208383683Y-81576317D01*
X208475045Y-81651296D01*
X208579279Y-81707010D01*
X208692379Y-81741318D01*
X208721081Y-81744145D01*
X208604647Y-81845644D01*
X208430936Y-82070639D01*
X208304457Y-82325201D01*
X208246905Y-82514941D01*
X208363852Y-82740000D01*
X209560000Y-82740000D01*
X209560000Y-80400000D01*
X209760000Y-80400000D01*
X209760000Y-82740000D01*
X210956148Y-82740000D01*
X211073095Y-82514941D01*
X211015543Y-82325201D01*
X210889064Y-82070639D01*
X210715353Y-81845644D01*
X210598919Y-81744145D01*
X210627621Y-81741318D01*
X210740721Y-81707010D01*
X210844955Y-81651296D01*
X210936317Y-81576317D01*
X211011296Y-81484955D01*
X211067010Y-81380721D01*
X211101318Y-81267621D01*
X211112903Y-81150000D01*
X211110000Y-80550000D01*
X210960000Y-80400000D01*
X209760000Y-80400000D01*
X209560000Y-80400000D01*
X208360000Y-80400000D01*
X208210000Y-80550000D01*
X208207097Y-81150000D01*
X175552903Y-81150000D01*
X175550000Y-80550000D01*
X175400000Y-80400000D01*
X174200000Y-80400000D01*
X174000000Y-80400000D01*
X172800000Y-80400000D01*
X172650000Y-80550000D01*
X172647097Y-81150000D01*
X172425000Y-81150000D01*
X172425000Y-79920789D01*
X172447472Y-79691594D01*
X172507997Y-79491127D01*
X172606309Y-79306231D01*
X172722971Y-79163189D01*
X172692990Y-79219279D01*
X172658682Y-79332379D01*
X172647097Y-79450000D01*
X172650000Y-80050000D01*
X172800000Y-80200000D01*
X174000000Y-80200000D01*
X174000000Y-79000000D01*
X174200000Y-79000000D01*
X174200000Y-80200000D01*
X175400000Y-80200000D01*
X175550000Y-80050000D01*
X175552903Y-79450000D01*
X208207097Y-79450000D01*
X208210000Y-80050000D01*
X208360000Y-80200000D01*
X209560000Y-80200000D01*
X209560000Y-79000000D01*
X209760000Y-79000000D01*
X209760000Y-80200000D01*
X210960000Y-80200000D01*
X211110000Y-80050000D01*
X211112903Y-79450000D01*
X211101318Y-79332379D01*
X211067010Y-79219279D01*
X211011296Y-79115045D01*
X210936317Y-79023683D01*
X210844955Y-78948704D01*
X210740721Y-78892990D01*
X210627621Y-78858682D01*
X210510000Y-78847097D01*
X209910000Y-78850000D01*
X209760000Y-79000000D01*
X209560000Y-79000000D01*
X209410000Y-78850000D01*
X208810000Y-78847097D01*
X208692379Y-78858682D01*
X208579279Y-78892990D01*
X208475045Y-78948704D01*
X208383683Y-79023683D01*
X208308704Y-79115045D01*
X208252990Y-79219279D01*
X208218682Y-79332379D01*
X208207097Y-79450000D01*
X175552903Y-79450000D01*
X175541318Y-79332379D01*
X175507010Y-79219279D01*
X175451296Y-79115045D01*
X175376317Y-79023683D01*
X175284955Y-78948704D01*
X175180721Y-78892990D01*
X175067621Y-78858682D01*
X174950000Y-78847097D01*
X174350000Y-78850000D01*
X174200000Y-79000000D01*
X174000000Y-79000000D01*
X173850000Y-78850000D01*
X173299627Y-78847337D01*
X173512154Y-78825000D01*
X210479211Y-78825000D01*
X210708406Y-78847472D01*
G37*
G04 #@! TD.AperFunction*
M02*
